<svg width="24" height="24" viewBox="0 0 24 24" fill="none" xmlns="http://www.w3.org/2000/svg">
<path opacity="0.5" d="M11.754 1.94167C13.1295 1.94604 14.479 2.76748 15.0212 4.30788L15.2369 4.89772H19.2258L19.3054 4.90163C19.6956 4.94025 20 5.25956 20 5.64772C19.9999 6.03585 19.6956 6.3552 19.3054 6.39382L19.2258 6.39772H4.77419C4.34665 6.39772 4.00005 6.06189 4 5.64772C4 5.23351 4.34662 4.89772 4.77419 4.89772H8.30444L8.50302 4.30886C9.02686 2.75476 10.3752 1.93732 11.754 1.94167ZM11.749 3.44167C11.0289 3.4394 10.286 3.85109 9.9748 4.77468L9.93347 4.89772H13.5948L13.5565 4.79225C13.2303 3.86569 12.4725 3.44398 11.749 3.44167Z" fill="#E5230A"/>
<path d="M17.5284 9.20874H6.47197V18.1697C6.47197 19.4889 7.57591 20.5583 8.9377 20.5583H15.0627C16.4245 20.5583 17.5284 19.489 17.5284 18.1697V9.20874ZM9.45282 17.1257V12.6179C9.45282 12.2039 9.79966 11.8682 10.227 11.8679C10.6546 11.8679 11.0012 12.2037 11.0012 12.6179V17.1257C11.0012 17.5399 10.6546 17.8757 10.227 17.8757C9.79966 17.8755 9.45282 17.5398 9.45282 17.1257ZM12.9921 17.1257V12.6179C12.9921 12.2038 13.3389 11.8681 13.7663 11.8679C14.1939 11.8679 14.5405 12.2037 14.5405 12.6179V17.1257C14.5405 17.5399 14.1939 17.8757 13.7663 17.8757C13.3389 17.8755 12.9921 17.5398 12.9921 17.1257ZM19.0768 18.1697C19.0768 20.3174 17.2797 22.0583 15.0627 22.0583H8.9377C6.72076 22.0583 4.92358 20.3174 4.92358 18.1697V8.45874L4.92762 8.38159C4.96748 8.00362 5.29709 7.70874 5.69778 7.70874H18.3026L18.3823 7.71265C18.7726 7.75108 19.0768 8.07044 19.0768 8.45874V18.1697Z" fill="#E5230A"/>
</svg>
