<svg width="87" height="49" viewBox="0 0 87 49" fill="none" xmlns="http://www.w3.org/2000/svg">
<path d="M4.93989 29.1325L5.99619 23.0828H27.1223L26.066 29.1325H19.28L16.2712 46.1294H8.71698L11.7258 29.1325H4.93989ZM39.4996 28.1082C38.6887 28.1082 37.9525 28.3003 37.291 28.6844C36.6508 29.0471 36.1066 29.5379 35.6585 30.1568C35.2104 30.7756 34.8476 31.4585 34.5702 32.2054C34.2928 32.9309 34.0794 33.6885 33.93 34.478C33.802 35.2463 33.7379 35.9718 33.7379 36.6547C33.7379 37.9777 34.0047 39.0554 34.5382 39.8876C35.093 40.6985 36.0106 41.1039 37.291 41.1039C38.8487 41.1039 40.0971 40.5064 41.036 39.3114C41.975 38.1164 42.6258 36.5053 42.9886 34.478C43.1166 33.8379 43.1807 33.2083 43.1807 32.5895C43.1807 31.2664 42.8819 30.1888 42.2844 29.3566C41.7082 28.5243 40.78 28.1082 39.4996 28.1082ZM40.5559 22.4746C42.2844 22.4746 43.7995 22.7307 45.1012 23.2428C46.4029 23.7336 47.4699 24.4165 48.3021 25.2914C49.1344 26.1663 49.7532 27.1799 50.1587 28.3323C50.5641 29.4846 50.7668 30.7223 50.7668 32.0453C50.7668 32.8349 50.6922 33.6458 50.5428 34.478C50.2013 36.3773 49.5932 38.0951 48.7183 39.6315C47.8433 41.168 46.7657 42.4697 45.4853 43.5366C44.205 44.5823 42.7752 45.3825 41.1961 45.9373C39.6383 46.4708 38.0058 46.7376 36.2987 46.7376C33.1191 46.7376 30.6224 45.916 28.8085 44.2729C27.016 42.6297 26.1197 40.3144 26.1197 37.3269C26.1197 36.3879 26.2158 35.417 26.4078 34.414C26.7066 32.6215 27.2721 30.989 28.1043 29.5166C28.9579 28.0442 30.0142 26.7852 31.2732 25.7395C32.5323 24.6725 33.9513 23.8616 35.5305 23.3068C37.1096 22.752 38.7847 22.4746 40.5559 22.4746ZM61.3942 28.4603L60.5939 33.0376H63.5708C64.7871 33.0376 65.7154 32.8669 66.3556 32.5255C67.0171 32.184 67.4119 31.6292 67.5399 30.861C67.5399 30.797 67.5506 30.7116 67.5719 30.6049C67.5933 30.4769 67.6039 30.4022 67.6039 30.3809C67.6039 29.7407 67.3585 29.2605 66.8677 28.9404C66.3983 28.6203 65.7474 28.4603 64.9152 28.4603H61.3942ZM62.0023 38.0951H59.6977L58.2893 46.1294H50.7351L54.8003 23.0828H65.6834C68.991 23.0828 71.349 23.4775 72.7574 24.2671C74.1872 25.0567 74.902 26.3157 74.902 28.0442C74.902 28.5137 74.8487 29.0471 74.742 29.6446C74.4859 31.0317 73.9418 32.2267 73.1095 33.2297C72.2986 34.2326 71.221 34.9155 69.8766 35.2783C70.9863 35.7051 71.7758 36.1532 72.2453 36.6227C72.7148 37.0921 72.9495 37.9137 72.9495 39.0874C72.9495 39.7275 72.8641 40.4958 72.6934 41.392C72.6507 41.6908 72.6081 41.9575 72.5654 42.1923C72.3306 43.5153 72.2133 44.3369 72.2133 44.657C72.2133 45.1691 72.4053 45.4252 72.7894 45.4252L72.6614 46.1294H65.0112C65.0112 46.0867 65.0112 46.012 65.0112 45.9053C64.9899 45.7346 64.9792 45.5959 64.9792 45.4892C64.9792 44.6356 65.0966 43.5046 65.3313 42.0962C65.4807 41.3494 65.5554 40.7518 65.5554 40.3037C65.5554 39.4928 65.2993 38.9273 64.7871 38.6072C64.275 38.2658 63.3467 38.0951 62.0023 38.0951ZM82.7226 46.1294H75.1684L79.2335 23.0828H86.7877L82.7226 46.1294Z" fill="#C7FD05"/>
<path d="M15.439 12.4877H13.535L12.9511 15.8643H15.566C16.3953 15.8643 17.0554 15.7458 17.5462 15.5089C18.037 15.255 18.3332 14.8149 18.4348 14.1887C18.4348 14.121 18.4432 14.0533 18.4602 13.9856C18.4771 13.8841 18.4856 13.8248 18.4856 13.8079C18.4856 13.2494 18.2401 12.8939 17.7493 12.7416C17.2585 12.5724 16.4884 12.4877 15.439 12.4877ZM16.7592 6.11546H14.652L14.1189 9.16197H16.6069C17.2331 9.16197 17.7578 9.02657 18.1809 8.75577C18.604 8.46804 18.8579 8.0703 18.9425 7.56255C18.9425 7.51177 18.951 7.44407 18.9679 7.35945C18.9848 7.27482 18.9933 7.22405 18.9933 7.20712C18.9933 6.7163 18.8071 6.41165 18.4348 6.29317C18.0624 6.1747 17.5039 6.11546 16.7592 6.11546ZM15.109 20.1294H6.19797L9.42219 1.85035H18.1555C19.1372 1.85035 20.0257 1.90959 20.8212 2.02806C21.6167 2.14654 22.3106 2.34964 22.903 2.63736C23.5123 2.90816 23.9777 3.28898 24.2993 3.7798C24.6378 4.2537 24.8071 4.83762 24.8071 5.53154C24.8071 5.81927 24.7817 6.12392 24.7309 6.4455C24.5786 7.30867 24.2147 8.08723 23.6392 8.78115C23.0638 9.45815 22.3952 10.0082 21.6336 10.4313C22.4122 10.6344 23.0045 11.0322 23.4107 11.6246C23.8339 12.2 24.0454 12.8939 24.0454 13.7063C24.0454 13.9941 24.0116 14.2987 23.9439 14.6203C23.6054 16.5667 22.6745 17.9715 21.1512 18.8346C19.6449 19.6978 17.6308 20.1294 15.109 20.1294ZM34.6909 13.9094L33.9293 7.35945L30.9082 13.9094H34.6909ZM27.9886 20.1294H22.1241L31.8983 1.85035H37.9913L41.3171 20.1294H35.351L35.0718 17.7176H29.1057L27.9886 20.1294ZM46.225 20.1294H40.8429L44.0671 1.85035H51.3025L52.5212 13.2494L57.751 1.85035H64.9864L61.7622 20.1294H56.3801L57.3702 14.5441L57.9541 11.7007L58.8427 8.40034H58.7919L53.3843 20.1294H49.2208L47.9768 8.40034H47.926L47.6975 11.0914L47.3167 13.9348L46.225 20.1294ZM67.9145 20.1294H62.5324L63.4463 14.8996H68.8285L67.9145 20.1294Z" fill="#1A1A1B"/>
</svg>
