<svg width="87" height="49" viewBox="0 0 87 49" fill="none" xmlns="http://www.w3.org/2000/svg">
<path d="M4.93989 29.8627L5.99619 23.813H27.1223L26.066 29.8627H19.28L16.2712 46.8596H8.71698L11.7258 29.8627H4.93989ZM39.4996 28.8384C38.6887 28.8384 37.9525 29.0305 37.291 29.4146C36.6508 29.7774 36.1066 30.2682 35.6585 30.887C35.2104 31.5059 34.8476 32.1887 34.5702 32.9356C34.2928 33.6611 34.0794 34.4187 33.93 35.2083C33.802 35.9765 33.7379 36.702 33.7379 37.3849C33.7379 38.7079 34.0047 39.7856 34.5382 40.6178C35.093 41.4287 36.0106 41.8342 37.291 41.8342C38.8487 41.8342 40.0971 41.2367 41.036 40.0417C41.975 38.8466 42.6258 37.2355 42.9886 35.2083C43.1166 34.5681 43.1807 33.9386 43.1807 33.3197C43.1807 31.9967 42.8819 30.919 42.2844 30.0868C41.7082 29.2545 40.78 28.8384 39.4996 28.8384ZM40.5559 23.2048C42.2844 23.2048 43.7995 23.4609 45.1012 23.973C46.4029 24.4638 47.4699 25.1467 48.3021 26.0216C49.1344 26.8965 49.7532 27.9102 50.1587 29.0625C50.5641 30.2148 50.7668 31.4525 50.7668 32.7756C50.7668 33.5651 50.6922 34.376 50.5428 35.2083C50.2013 37.1075 49.5932 38.8253 48.7183 40.3617C47.8433 41.8982 46.7657 43.1999 45.4853 44.2669C44.205 45.3125 42.7752 46.1127 41.1961 46.6676C39.6383 47.2011 38.0058 47.4678 36.2987 47.4678C33.1191 47.4678 30.6224 46.6462 28.8085 45.0031C27.016 43.3599 26.1197 41.0446 26.1197 38.0571C26.1197 37.1181 26.2158 36.1472 26.4078 35.1442C26.7066 33.3517 27.2721 31.7193 28.1043 30.2468C28.9579 28.7744 30.0142 27.5154 31.2732 26.4697C32.5323 25.4028 33.9513 24.5919 35.5305 24.037C37.1096 23.4822 38.7847 23.2048 40.5559 23.2048ZM61.3942 29.1905L60.5939 33.7678H63.5708C64.7871 33.7678 65.7154 33.5971 66.3556 33.2557C67.0171 32.9143 67.4119 32.3594 67.5399 31.5912C67.5399 31.5272 67.5506 31.4418 67.5719 31.3351C67.5933 31.2071 67.6039 31.1324 67.6039 31.1111C67.6039 30.4709 67.3585 29.9908 66.8677 29.6707C66.3983 29.3506 65.7474 29.1905 64.9152 29.1905H61.3942ZM62.0023 38.8253H59.6977L58.2893 46.8596H50.7351L54.8003 23.813H65.6834C68.991 23.813 71.349 24.2078 72.7574 24.9973C74.1872 25.7869 74.902 27.0459 74.902 28.7744C74.902 29.2439 74.8487 29.7774 74.742 30.3749C74.4859 31.7619 73.9418 32.9569 73.1095 33.9599C72.2986 34.9629 71.221 35.6457 69.8766 36.0085C70.9863 36.4353 71.7758 36.8834 72.2453 37.3529C72.7148 37.8223 72.9495 38.6439 72.9495 39.8176C72.9495 40.4578 72.8641 41.226 72.6934 42.1223C72.6507 42.421 72.6081 42.6878 72.5654 42.9225C72.3306 44.2455 72.2133 45.0671 72.2133 45.3872C72.2133 45.8993 72.4053 46.1554 72.7894 46.1554L72.6614 46.8596H65.0112C65.0112 46.8169 65.0112 46.7423 65.0112 46.6356C64.9899 46.4648 64.9792 46.3261 64.9792 46.2194C64.9792 45.3659 65.0966 44.2349 65.3313 42.8265C65.4807 42.0796 65.5554 41.4821 65.5554 41.0339C65.5554 40.223 65.2993 39.6575 64.7871 39.3375C64.275 38.996 63.3467 38.8253 62.0023 38.8253ZM82.7226 46.8596H75.1684L79.2335 23.813H86.7877L82.7226 46.8596Z" fill="#C7FD05"/>
<path d="M15.439 13.218H13.535L12.9511 16.5945H15.566C16.3953 16.5945 17.0554 16.476 17.5462 16.2391C18.037 15.9852 18.3332 15.5452 18.4348 14.9189C18.4348 14.8512 18.4432 14.7835 18.4602 14.7158C18.4771 14.6143 18.4856 14.555 18.4856 14.5381C18.4856 13.9796 18.2401 13.6242 17.7493 13.4718C17.2585 13.3026 16.4884 13.218 15.439 13.218ZM16.7592 6.84568H14.652L14.1189 9.89219H16.6069C17.2331 9.89219 17.7578 9.75679 18.1809 9.48599C18.604 9.19826 18.8579 8.80053 18.9425 8.29277C18.9425 8.242 18.951 8.1743 18.9679 8.08967C18.9848 8.00505 18.9933 7.95427 18.9933 7.93735C18.9933 7.44652 18.8071 7.14187 18.4348 7.0234C18.0624 6.90492 17.5039 6.84568 16.7592 6.84568ZM15.109 20.8596H6.19797L9.42219 2.58057H18.1555C19.1372 2.58057 20.0257 2.63981 20.8212 2.75828C21.6167 2.87676 22.3106 3.07986 22.903 3.36759C23.5123 3.63839 23.9777 4.0192 24.2993 4.51003C24.6378 4.98393 24.8071 5.56784 24.8071 6.26177C24.8071 6.54949 24.7817 6.85415 24.7309 7.17572C24.5786 8.0389 24.2147 8.81745 23.6392 9.51138C23.0638 10.1884 22.3952 10.7384 21.6336 11.1616C22.4122 11.3647 23.0045 11.7624 23.4107 12.3548C23.8339 12.9302 24.0454 13.6242 24.0454 14.4366C24.0454 14.7243 24.0116 15.0289 23.9439 15.3505C23.6054 17.2969 22.6745 18.7017 21.1512 19.5649C19.6449 20.428 17.6308 20.8596 15.109 20.8596ZM34.6909 14.6397L33.9293 8.08967L30.9082 14.6397H34.6909ZM27.9886 20.8596H22.1241L31.8983 2.58057H37.9913L41.3171 20.8596H35.351L35.0718 18.4478H29.1057L27.9886 20.8596ZM46.225 20.8596H40.8429L44.0671 2.58057H51.3025L52.5212 13.9796L57.751 2.58057H64.9864L61.7622 20.8596H56.3801L57.3702 15.2744L57.9541 12.4309L58.8427 9.13056H58.7919L53.3843 20.8596H49.2208L47.9768 9.13056H47.926L47.6975 11.8216L47.3167 14.6651L46.225 20.8596ZM67.9145 20.8596H62.5324L63.4463 15.6298H68.8285L67.9145 20.8596Z" fill="white"/>
</svg>
