<svg width="19" height="18" viewBox="0 0 19 18" fill="none" xmlns="http://www.w3.org/2000/svg">
<path d="M10.127 16.9961L10.1192 16.4962L9.62695 16.5038V16.9961H10.127ZM10.127 17V17.5H10.627V17H10.127ZM2 17L1.67745 16.618L0.632697 17.5H2V17ZM4.5459 14.8506L4.86845 15.2326L5.29893 14.8692L4.88692 14.4849L4.5459 14.8506ZM10 1V1.5C14.1421 1.5 17.5 4.85786 17.5 9H18H18.5C18.5 4.30558 14.6944 0.5 10 0.5V1ZM18 9H17.5C17.5 13.1021 14.2065 16.4325 10.1192 16.4962L10.127 16.9961L10.1347 17.496C14.7669 17.4239 18.5 13.6496 18.5 9H18ZM10.127 16.9961H9.62695V17H10.127H10.627V16.9961H10.127ZM10.127 17V16.5H2V17V17.5H10.127V17ZM2 17L2.32255 17.382L4.86845 15.2326L4.5459 14.8506L4.22335 14.4685L1.67745 16.618L2 17ZM4.5459 14.8506L4.88692 14.4849C3.4181 13.1151 2.5 11.1654 2.5 9H2H1.5C1.5 11.4546 2.54208 13.6655 4.20488 15.2162L4.5459 14.8506ZM2 9H2.5C2.5 4.85786 5.85786 1.5 10 1.5V1V0.5C5.30558 0.5 1.5 4.30558 1.5 9H2Z" fill="#1A1A1B"/>
</svg>
