<svg width="272" height="179" viewBox="0 0 272 179" fill="none" xmlns="http://www.w3.org/2000/svg">
<rect width="272" height="179" fill="#ECEEF0"/>
<mask id="path-1-outside-1_2571_2" maskUnits="userSpaceOnUse" x="96.5" y="86.5" width="85" height="27" fill="black">
<rect fill="white" x="96.5" y="86.5" width="85" height="27"/>
<path d="M98.2631 94.5031L99.3194 88.4534H120.446L119.389 94.5031H112.603L109.594 111.5H102.04L105.049 94.5031H98.2631ZM132.823 93.4788C132.012 93.4788 131.276 93.6709 130.614 94.055C129.974 94.4177 129.43 94.9086 128.982 95.5274C128.534 96.1462 128.171 96.8291 127.893 97.576C127.616 98.3015 127.403 99.0591 127.253 99.8486C127.125 100.617 127.061 101.342 127.061 102.025C127.061 103.348 127.328 104.426 127.861 105.258C128.416 106.069 129.334 106.475 130.614 106.475C132.172 106.475 133.42 105.877 134.359 104.682C135.298 103.487 135.949 101.876 136.312 99.8486C136.44 99.2085 136.504 98.5789 136.504 97.9601C136.504 96.637 136.205 95.5594 135.608 94.7272C135.031 93.8949 134.103 93.4788 132.823 93.4788ZM133.879 87.8452C135.608 87.8452 137.123 88.1013 138.424 88.6134C139.726 89.1042 140.793 89.7871 141.625 90.662C142.458 91.5369 143.076 92.5505 143.482 93.7029C143.887 94.8552 144.09 96.0929 144.09 97.4159C144.09 98.2055 144.015 99.0164 143.866 99.8486C143.525 101.748 142.916 103.466 142.041 105.002C141.167 106.539 140.089 107.84 138.809 108.907C137.528 109.953 136.098 110.753 134.519 111.308C132.962 111.841 131.329 112.108 129.622 112.108C126.442 112.108 123.946 111.287 122.132 109.643C120.339 108 119.443 105.685 119.443 102.697C119.443 101.759 119.539 100.788 119.731 99.7846C120.03 97.9921 120.595 96.3596 121.428 94.8872C122.281 93.4148 123.337 92.1558 124.596 91.1101C125.855 90.0431 127.275 89.2322 128.854 88.6774C130.433 88.1226 132.108 87.8452 133.879 87.8452ZM154.717 93.8309L153.917 98.4082H156.894C158.11 98.4082 159.039 98.2375 159.679 97.8961C160.34 97.5546 160.735 96.9998 160.863 96.2316C160.863 96.1676 160.874 96.0822 160.895 95.9755C160.917 95.8475 160.927 95.7728 160.927 95.7515C160.927 95.1113 160.682 94.6311 160.191 94.311C159.722 93.991 159.071 93.8309 158.238 93.8309H154.717ZM155.326 103.466H153.021L151.613 111.5H144.058L148.123 88.4534H159.007C162.314 88.4534 164.672 88.8481 166.081 89.6377C167.51 90.4273 168.225 91.6863 168.225 93.4148C168.225 93.8843 168.172 94.4177 168.065 95.0152C167.809 96.4023 167.265 97.5973 166.433 98.6003C165.622 99.6032 164.544 100.286 163.2 100.649C164.309 101.076 165.099 101.524 165.569 101.993C166.038 102.463 166.273 103.284 166.273 104.458C166.273 105.098 166.187 105.866 166.017 106.763C165.974 107.061 165.931 107.328 165.889 107.563C165.654 108.886 165.537 109.707 165.537 110.028C165.537 110.54 165.729 110.796 166.113 110.796L165.985 111.5H158.334C158.334 111.457 158.334 111.383 158.334 111.276C158.313 111.105 158.302 110.967 158.302 110.86C158.302 110.006 158.42 108.875 158.655 107.467C158.804 106.72 158.879 106.122 158.879 105.674C158.879 104.863 158.623 104.298 158.11 103.978C157.598 103.636 156.67 103.466 155.326 103.466ZM176.046 111.5H168.492L172.557 88.4534H180.111L176.046 111.5Z"/>
</mask>
<path d="M98.2631 94.5031L97.278 94.3311L97.0734 95.5031H98.2631V94.5031ZM99.3194 88.4534V87.4534H98.4789L98.3343 88.2814L99.3194 88.4534ZM120.446 88.4534L121.431 88.6254L121.635 87.4534H120.446V88.4534ZM119.389 94.5031V95.5031H120.23L120.374 94.6751L119.389 94.5031ZM112.603 94.5031V93.5031H111.765L111.619 94.3288L112.603 94.5031ZM109.594 111.5V112.5H110.433L110.579 111.674L109.594 111.5ZM102.04 111.5L101.056 111.326L100.848 112.5H102.04V111.5ZM105.049 94.5031L106.034 94.6774L106.242 93.5031H105.049V94.5031ZM98.2631 94.5031L99.2482 94.6751L100.305 88.6254L99.3194 88.4534L98.3343 88.2814L97.278 94.3311L98.2631 94.5031ZM99.3194 88.4534V89.4534H120.446V88.4534V87.4534H99.3194V88.4534ZM120.446 88.4534L119.46 88.2814L118.404 94.3311L119.389 94.5031L120.374 94.6751L121.431 88.6254L120.446 88.4534ZM119.389 94.5031V93.5031H112.603V94.5031V95.5031H119.389V94.5031ZM112.603 94.5031L111.619 94.3288L108.61 111.326L109.594 111.5L110.579 111.674L113.588 94.6774L112.603 94.5031ZM109.594 111.5V110.5H102.04V111.5V112.5H109.594V111.5ZM102.04 111.5L103.025 111.674L106.034 94.6774L105.049 94.5031L104.064 94.3288L101.056 111.326L102.04 111.5ZM105.049 94.5031V93.5031H98.2631V94.5031V95.5031H105.049V94.5031ZM130.614 94.055L131.107 94.925L131.116 94.9198L130.614 94.055ZM128.982 95.5274L128.172 94.9409L128.982 95.5274ZM127.893 97.576L128.828 97.9331L128.831 97.9242L127.893 97.576ZM127.253 99.8486L126.271 99.6628L126.269 99.6735L126.267 99.6842L127.253 99.8486ZM127.861 105.258L127.02 105.798L127.028 105.811L127.036 105.823L127.861 105.258ZM134.359 104.682L135.146 105.3L134.359 104.682ZM136.312 99.8486L135.331 99.6525L135.329 99.6625L135.327 99.6725L136.312 99.8486ZM135.608 94.7272L134.785 95.2964L134.79 95.3034L134.795 95.3104L135.608 94.7272ZM138.424 88.6134L138.058 89.544L138.065 89.5466L138.072 89.5491L138.424 88.6134ZM141.625 90.662L142.35 89.9728L142.35 89.9728L141.625 90.662ZM143.482 93.7029L142.539 94.0348L142.539 94.0348L143.482 93.7029ZM143.866 99.8486L144.85 100.026L144.85 100.025L143.866 99.8486ZM138.809 108.907L139.441 109.682L139.449 109.675L138.809 108.907ZM134.519 111.308L134.843 112.254L134.851 112.251L134.519 111.308ZM122.132 109.643L121.456 110.381L121.46 110.385L122.132 109.643ZM119.731 99.7846L120.713 99.9727L120.715 99.9609L120.717 99.949L119.731 99.7846ZM121.428 94.8872L120.562 94.3857L120.557 94.3952L121.428 94.8872ZM124.596 91.1101L125.235 91.8795L125.243 91.873L124.596 91.1101ZM128.854 88.6774L128.522 87.734V87.734L128.854 88.6774ZM132.823 93.4788V92.4788C131.847 92.4788 130.935 92.7121 130.112 93.1902L130.614 94.055L131.116 94.9198C131.616 94.6296 132.177 94.4788 132.823 94.4788V93.4788ZM130.614 94.055L130.121 93.185C129.351 93.6211 128.701 94.2105 128.172 94.9409L128.982 95.5274L129.792 96.1139C130.159 95.6066 130.597 95.2143 131.107 94.925L130.614 94.055ZM128.982 95.5274L128.172 94.9409C127.668 95.6361 127.264 96.3997 126.956 97.2278L127.893 97.576L128.831 97.9242C129.078 97.2585 129.399 96.6564 129.792 96.1139L128.982 95.5274ZM127.893 97.576L126.959 97.2188C126.66 98.0018 126.431 98.8168 126.271 99.6628L127.253 99.8486L128.236 100.035C128.375 99.3014 128.572 98.6013 128.827 97.9331L127.893 97.576ZM127.253 99.8486L126.267 99.6842C126.131 100.499 126.061 101.28 126.061 102.025H127.061H128.061C128.061 101.405 128.119 100.734 128.24 100.013L127.253 99.8486ZM127.061 102.025H126.061C126.061 103.477 126.353 104.759 127.02 105.798L127.861 105.258L128.703 104.719C128.303 104.093 128.061 103.22 128.061 102.025H127.061ZM127.861 105.258L127.036 105.823C127.832 106.987 129.115 107.475 130.614 107.475V106.475V105.475C129.553 105.475 129 105.151 128.687 104.694L127.861 105.258ZM130.614 106.475V107.475C132.47 107.475 134.012 106.743 135.146 105.3L134.359 104.682L133.573 104.064C132.829 105.011 131.874 105.475 130.614 105.475V106.475ZM134.359 104.682L135.146 105.3C136.215 103.939 136.914 102.159 137.296 100.025L136.312 99.8486L135.327 99.6725C134.984 101.593 134.381 103.036 133.573 104.064L134.359 104.682ZM136.312 99.8486L137.292 100.045C137.433 99.3435 137.504 98.6483 137.504 97.9601H136.504H135.504C135.504 98.5096 135.447 99.0734 135.331 99.6525L136.312 99.8486ZM136.504 97.9601H137.504C137.504 96.4887 137.171 95.1897 136.42 94.144L135.608 94.7272L134.795 95.3104C135.24 95.9291 135.504 96.7854 135.504 97.9601H136.504ZM135.608 94.7272L136.43 94.158C135.618 92.9846 134.334 92.4788 132.823 92.4788V93.4788V94.4788C133.873 94.4788 134.445 94.8052 134.785 95.2964L135.608 94.7272ZM133.879 87.8452V88.8452C135.511 88.8452 136.897 89.0871 138.058 89.544L138.424 88.6134L138.791 87.6828C137.348 87.1154 135.704 86.8452 133.879 86.8452V87.8452ZM138.424 88.6134L138.072 89.5491C139.254 89.9949 140.187 90.6008 140.901 91.3512L141.625 90.662L142.35 89.9728C141.399 88.9733 140.198 88.2136 138.777 87.6777L138.424 88.6134ZM141.625 90.662L140.901 91.3512C141.635 92.1226 142.179 93.0141 142.539 94.0348L143.482 93.7029L144.425 93.371C143.973 92.087 143.281 90.9512 142.35 89.9728L141.625 90.662ZM143.482 93.7029L142.539 94.0348C142.904 95.072 143.09 96.1965 143.09 97.4159H144.09H145.09C145.09 95.9892 144.871 94.6384 144.425 93.371L143.482 93.7029ZM144.09 97.4159H143.09C143.09 98.1423 143.021 98.894 142.882 99.672L143.866 99.8486L144.85 100.025C145.009 99.1388 145.09 98.2687 145.09 97.4159H144.09ZM143.866 99.8486L142.882 99.6717C142.559 101.469 141.986 103.078 141.173 104.507L142.041 105.002L142.91 105.497C143.846 103.853 144.491 102.026 144.85 100.026L143.866 99.8486ZM142.041 105.002L141.173 104.507C140.353 105.946 139.351 107.153 138.168 108.139L138.809 108.907L139.449 109.675C140.827 108.527 141.98 107.131 142.91 105.497L142.041 105.002ZM138.809 108.907L138.176 108.133C136.987 109.104 135.659 109.848 134.188 110.364L134.519 111.308L134.851 112.251C136.538 111.659 138.07 110.802 139.441 109.682L138.809 108.907ZM134.519 111.308L134.195 110.362C132.746 110.858 131.223 111.108 129.622 111.108V112.108V113.108C131.435 113.108 133.177 112.825 134.843 112.254L134.519 111.308ZM129.622 112.108V111.108C126.614 111.108 124.383 110.334 122.803 108.902L122.132 109.643L121.46 110.385C123.508 112.239 126.27 113.108 129.622 113.108V112.108ZM122.132 109.643L122.807 108.906C121.268 107.495 120.443 105.474 120.443 102.697H119.443H118.443C118.443 105.896 119.411 108.506 121.456 110.381L122.132 109.643ZM119.443 102.697H120.443C120.443 101.827 120.532 100.919 120.713 99.9727L119.731 99.7846L118.749 99.5966C118.546 100.656 118.443 101.69 118.443 102.697H119.443ZM119.731 99.7846L120.717 99.949C120.998 98.263 121.527 96.7427 122.298 95.3793L121.428 94.8872L120.557 94.3952C119.663 95.9765 119.061 97.7212 118.745 99.6202L119.731 99.7846ZM121.428 94.8872L122.293 95.3887C123.09 94.0141 124.071 92.8468 125.235 91.8794L124.596 91.1101L123.958 90.3408C122.604 91.4647 121.473 92.8155 120.562 94.3857L121.428 94.8872ZM124.596 91.1101L125.243 91.873C126.408 90.8861 127.72 90.1358 129.185 89.6209L128.854 88.6774L128.522 87.734C126.83 88.3287 125.303 89.2002 123.95 90.3472L124.596 91.1101ZM128.854 88.6774L129.185 89.6209C130.652 89.1056 132.214 88.8452 133.879 88.8452V87.8452V86.8452C132.002 86.8452 130.214 87.1396 128.522 87.734L128.854 88.6774ZM154.717 93.8309V92.8309H153.877L153.732 93.6587L154.717 93.8309ZM153.917 98.4082L152.932 98.236L152.727 99.4082H153.917V98.4082ZM159.679 97.8961L159.22 97.0074L159.208 97.0137L159.679 97.8961ZM160.863 96.2316L161.85 96.396L161.863 96.3144V96.2316H160.863ZM160.895 95.9755L161.876 96.1716L161.879 96.1558L161.882 96.1399L160.895 95.9755ZM160.191 94.311L159.628 95.1373L159.636 95.1431L159.645 95.1487L160.191 94.311ZM153.021 103.466V102.466H152.181L152.036 103.293L153.021 103.466ZM151.613 111.5V112.5H152.452L152.597 111.673L151.613 111.5ZM144.058 111.5L143.074 111.326L142.867 112.5H144.058V111.5ZM148.123 88.4534V87.4534H147.284L147.139 88.2797L148.123 88.4534ZM166.081 89.6377L165.592 90.51L165.597 90.5131L166.081 89.6377ZM168.065 95.0152L169.049 95.1968L169.05 95.191L168.065 95.0152ZM166.433 98.6003L165.663 97.9617L165.655 97.9716L166.433 98.6003ZM163.2 100.649L162.939 99.6834L159.98 100.482L162.841 101.582L163.2 100.649ZM165.569 101.993L166.276 101.286L165.569 101.993ZM166.017 106.763L165.034 106.576L165.03 106.598L165.027 106.621L166.017 106.763ZM165.889 107.563L164.905 107.384L164.904 107.388L165.889 107.563ZM166.113 110.796L167.097 110.975L167.311 109.796H166.113V110.796ZM165.985 111.5V112.5H166.819L166.969 111.679L165.985 111.5ZM158.334 111.5H157.334V112.5H158.334V111.5ZM158.334 111.276H159.334V111.214L159.327 111.152L158.334 111.276ZM158.655 107.467L157.674 107.271L157.671 107.287L157.668 107.302L158.655 107.467ZM158.11 103.978L157.556 104.81L157.568 104.818L157.58 104.826L158.11 103.978ZM154.717 93.8309L153.732 93.6587L152.932 98.236L153.917 98.4082L154.902 98.5804L155.702 94.0031L154.717 93.8309ZM153.917 98.4082V99.4082H156.894V98.4082V97.4082H153.917V98.4082ZM156.894 98.4082V99.4082C158.177 99.4082 159.298 99.2327 160.149 98.7784L159.679 97.8961L159.208 97.0137C158.78 97.2423 158.044 97.4082 156.894 97.4082V98.4082ZM159.679 97.8961L160.137 98.7847C161.094 98.291 161.672 97.4585 161.85 96.396L160.863 96.2316L159.877 96.0672C159.798 96.5411 159.587 96.8183 159.22 97.0075L159.679 97.8961ZM160.863 96.2316H161.863C161.863 96.2429 161.863 96.2496 161.863 96.2508C161.863 96.2522 161.863 96.2499 161.863 96.2436C161.865 96.2304 161.869 96.207 161.876 96.1716L160.895 95.9755L159.915 95.7794C159.888 95.9126 159.863 96.0718 159.863 96.2316H160.863ZM160.895 95.9755L161.882 96.1399C161.893 96.0728 161.902 96.0134 161.909 95.9649C161.912 95.9479 161.927 95.8477 161.927 95.7515H160.927H159.927C159.927 95.7329 159.928 95.718 159.928 95.7085C159.929 95.6986 159.929 95.6906 159.93 95.6853C159.93 95.675 159.931 95.6683 159.931 95.667C159.932 95.6646 159.931 95.6687 159.929 95.6821C159.925 95.7082 159.919 95.7502 159.909 95.8111L160.895 95.9755ZM160.927 95.7515H161.927C161.927 94.8105 161.541 93.9975 160.737 93.4734L160.191 94.311L159.645 95.1487C159.823 95.2647 159.927 95.4121 159.927 95.7515H160.927ZM160.191 94.311L160.754 93.4848C160.058 93.0102 159.183 92.8309 158.238 92.8309V93.8309V94.8309C158.958 94.8309 159.385 94.9717 159.628 95.1373L160.191 94.311ZM158.238 93.8309V92.8309H154.717V93.8309V94.8309H158.238V93.8309ZM155.326 103.466V102.466H153.021V103.466V104.466H155.326V103.466ZM153.021 103.466L152.036 103.293L150.628 111.327L151.613 111.5L152.597 111.673L154.006 103.638L153.021 103.466ZM151.613 111.5V110.5H144.058V111.5V112.5H151.613V111.5ZM144.058 111.5L145.043 111.674L149.108 88.6271L148.123 88.4534L147.139 88.2797L143.074 111.326L144.058 111.5ZM148.123 88.4534V89.4534H159.007V88.4534V87.4534H148.123V88.4534ZM159.007 88.4534V89.4534C162.287 89.4534 164.422 89.8541 165.592 90.51L166.081 89.6377L166.57 88.7654C164.923 87.8422 162.341 87.4534 159.007 87.4534V88.4534ZM166.081 89.6377L165.597 90.5131C166.172 90.8304 166.564 91.2186 166.82 91.6679C167.076 92.1201 167.225 92.69 167.225 93.4148H168.225H169.225C169.225 92.411 169.017 91.4872 168.559 90.6804C168.099 89.8706 167.419 89.2345 166.564 88.7623L166.081 89.6377ZM168.225 93.4148H167.225C167.225 93.8111 167.18 94.2841 167.081 94.8395L168.065 95.0152L169.05 95.191C169.164 94.5514 169.225 93.9574 169.225 93.4148H168.225ZM168.065 95.0152L167.082 94.8337C166.854 96.0669 166.377 97.101 165.663 97.9617L166.433 98.6003L167.202 99.2389C168.153 98.0936 168.764 96.7377 169.049 95.1968L168.065 95.0152ZM166.433 98.6003L165.655 97.9716C164.988 98.7973 164.097 99.3709 162.939 99.6834L163.2 100.649L163.46 101.614C164.991 101.201 166.256 100.409 167.21 99.229L166.433 98.6003ZM163.2 100.649L162.841 101.582C163.907 101.992 164.541 102.379 164.861 102.7L165.569 101.993L166.276 101.286C165.658 100.668 164.712 100.159 163.559 99.7155L163.2 100.649ZM165.569 101.993L164.861 102.7C165.043 102.882 165.273 103.362 165.273 104.458H166.273H167.273C167.273 103.207 167.033 102.044 166.276 101.286L165.569 101.993ZM166.273 104.458H165.273C165.273 105.015 165.198 105.717 165.034 106.576L166.017 106.763L166.999 106.95C167.177 106.015 167.273 105.181 167.273 104.458H166.273ZM166.017 106.763L165.027 106.621C164.985 106.911 164.945 107.164 164.905 107.384L165.889 107.563L166.872 107.742C166.918 107.492 166.963 107.212 167.007 106.904L166.017 106.763ZM165.889 107.563L164.904 107.388C164.676 108.676 164.537 109.599 164.537 110.028H165.537H166.537C166.537 109.816 166.632 109.096 166.873 107.738L165.889 107.563ZM165.537 110.028H164.537C164.537 110.38 164.597 110.826 164.881 111.204C165.204 111.635 165.677 111.796 166.113 111.796V110.796V109.796C166.127 109.796 166.186 109.798 166.267 109.834C166.353 109.872 166.428 109.933 166.481 110.004C166.529 110.068 166.542 110.118 166.543 110.121C166.543 110.124 166.537 110.096 166.537 110.028H165.537ZM166.113 110.796L165.129 110.617L165.001 111.321L165.985 111.5L166.969 111.679L167.097 110.975L166.113 110.796ZM165.985 111.5V110.5H158.334V111.5V112.5H165.985V111.5ZM158.334 111.5H159.334C159.334 111.5 159.334 111.5 159.334 111.5C159.334 111.5 159.334 111.5 159.334 111.499C159.334 111.499 159.334 111.499 159.334 111.499C159.334 111.499 159.334 111.499 159.334 111.499C159.334 111.499 159.334 111.499 159.334 111.499C159.334 111.499 159.334 111.499 159.334 111.498C159.334 111.498 159.334 111.498 159.334 111.498C159.334 111.498 159.334 111.498 159.334 111.498C159.334 111.498 159.334 111.498 159.334 111.498C159.334 111.498 159.334 111.498 159.334 111.497C159.334 111.497 159.334 111.497 159.334 111.497C159.334 111.497 159.334 111.497 159.334 111.497C159.334 111.497 159.334 111.497 159.334 111.497C159.334 111.497 159.334 111.497 159.334 111.496C159.334 111.496 159.334 111.496 159.334 111.496C159.334 111.496 159.334 111.496 159.334 111.496C159.334 111.496 159.334 111.496 159.334 111.496C159.334 111.496 159.334 111.495 159.334 111.495C159.334 111.495 159.334 111.495 159.334 111.495C159.334 111.495 159.334 111.495 159.334 111.495C159.334 111.495 159.334 111.495 159.334 111.495C159.334 111.494 159.334 111.494 159.334 111.494C159.334 111.494 159.334 111.494 159.334 111.494C159.334 111.494 159.334 111.494 159.334 111.494C159.334 111.494 159.334 111.494 159.334 111.494C159.334 111.493 159.334 111.493 159.334 111.493C159.334 111.493 159.334 111.493 159.334 111.493C159.334 111.493 159.334 111.493 159.334 111.493C159.334 111.493 159.334 111.493 159.334 111.492C159.334 111.492 159.334 111.492 159.334 111.492C159.334 111.492 159.334 111.492 159.334 111.492C159.334 111.492 159.334 111.492 159.334 111.492C159.334 111.492 159.334 111.491 159.334 111.491C159.334 111.491 159.334 111.491 159.334 111.491C159.334 111.491 159.334 111.491 159.334 111.491C159.334 111.491 159.334 111.491 159.334 111.491C159.334 111.49 159.334 111.49 159.334 111.49C159.334 111.49 159.334 111.49 159.334 111.49C159.334 111.49 159.334 111.49 159.334 111.49C159.334 111.49 159.334 111.49 159.334 111.489C159.334 111.489 159.334 111.489 159.334 111.489C159.334 111.489 159.334 111.489 159.334 111.489C159.334 111.489 159.334 111.489 159.334 111.489C159.334 111.488 159.334 111.488 159.334 111.488C159.334 111.488 159.334 111.488 159.334 111.488C159.334 111.488 159.334 111.488 159.334 111.488C159.334 111.488 159.334 111.488 159.334 111.487C159.334 111.487 159.334 111.487 159.334 111.487C159.334 111.487 159.334 111.487 159.334 111.487C159.334 111.487 159.334 111.487 159.334 111.487C159.334 111.486 159.334 111.486 159.334 111.486C159.334 111.486 159.334 111.486 159.334 111.486C159.334 111.486 159.334 111.486 159.334 111.486C159.334 111.486 159.334 111.486 159.334 111.485C159.334 111.485 159.334 111.485 159.334 111.485C159.334 111.485 159.334 111.485 159.334 111.485C159.334 111.485 159.334 111.485 159.334 111.485C159.334 111.484 159.334 111.484 159.334 111.484C159.334 111.484 159.334 111.484 159.334 111.484C159.334 111.484 159.334 111.484 159.334 111.484C159.334 111.484 159.334 111.483 159.334 111.483C159.334 111.483 159.334 111.483 159.334 111.483C159.334 111.483 159.334 111.483 159.334 111.483C159.334 111.483 159.334 111.483 159.334 111.482C159.334 111.482 159.334 111.482 159.334 111.482C159.334 111.482 159.334 111.482 159.334 111.482C159.334 111.482 159.334 111.482 159.334 111.482C159.334 111.482 159.334 111.481 159.334 111.481C159.334 111.481 159.334 111.481 159.334 111.481C159.334 111.481 159.334 111.481 159.334 111.481C159.334 111.481 159.334 111.48 159.334 111.48C159.334 111.48 159.334 111.48 159.334 111.48C159.334 111.48 159.334 111.48 159.334 111.48C159.334 111.48 159.334 111.48 159.334 111.479C159.334 111.479 159.334 111.479 159.334 111.479C159.334 111.479 159.334 111.479 159.334 111.479C159.334 111.479 159.334 111.479 159.334 111.479C159.334 111.478 159.334 111.478 159.334 111.478C159.334 111.478 159.334 111.478 159.334 111.478C159.334 111.478 159.334 111.478 159.334 111.478C159.334 111.478 159.334 111.477 159.334 111.477C159.334 111.477 159.334 111.477 159.334 111.477C159.334 111.477 159.334 111.477 159.334 111.477C159.334 111.477 159.334 111.477 159.334 111.476C159.334 111.476 159.334 111.476 159.334 111.476C159.334 111.476 159.334 111.476 159.334 111.476C159.334 111.476 159.334 111.476 159.334 111.475C159.334 111.475 159.334 111.475 159.334 111.475C159.334 111.475 159.334 111.475 159.334 111.475C159.334 111.475 159.334 111.475 159.334 111.475C159.334 111.474 159.334 111.474 159.334 111.474C159.334 111.474 159.334 111.474 159.334 111.474C159.334 111.474 159.334 111.474 159.334 111.474C159.334 111.473 159.334 111.473 159.334 111.473C159.334 111.473 159.334 111.473 159.334 111.473C159.334 111.473 159.334 111.473 159.334 111.473C159.334 111.473 159.334 111.472 159.334 111.472C159.334 111.472 159.334 111.472 159.334 111.472C159.334 111.472 159.334 111.472 159.334 111.472C159.334 111.472 159.334 111.471 159.334 111.471C159.334 111.471 159.334 111.471 159.334 111.471C159.334 111.471 159.334 111.471 159.334 111.471C159.334 111.471 159.334 111.47 159.334 111.47C159.334 111.47 159.334 111.47 159.334 111.47C159.334 111.47 159.334 111.47 159.334 111.47C159.334 111.47 159.334 111.469 159.334 111.469C159.334 111.469 159.334 111.469 159.334 111.469C159.334 111.469 159.334 111.469 159.334 111.469C159.334 111.469 159.334 111.469 159.334 111.468C159.334 111.468 159.334 111.468 159.334 111.468C159.334 111.468 159.334 111.468 159.334 111.468C159.334 111.468 159.334 111.468 159.334 111.467C159.334 111.467 159.334 111.467 159.334 111.467C159.334 111.467 159.334 111.467 159.334 111.467C159.334 111.467 159.334 111.467 159.334 111.466C159.334 111.466 159.334 111.466 159.334 111.466C159.334 111.466 159.334 111.466 159.334 111.466C159.334 111.466 159.334 111.466 159.334 111.465C159.334 111.465 159.334 111.465 159.334 111.465C159.334 111.465 159.334 111.465 159.334 111.465C159.334 111.465 159.334 111.464 159.334 111.464C159.334 111.464 159.334 111.464 159.334 111.464C159.334 111.464 159.334 111.464 159.334 111.464C159.334 111.464 159.334 111.463 159.334 111.463C159.334 111.463 159.334 111.463 159.334 111.463C159.334 111.463 159.334 111.463 159.334 111.463C159.334 111.463 159.334 111.462 159.334 111.462C159.334 111.462 159.334 111.462 159.334 111.462C159.334 111.462 159.334 111.462 159.334 111.462C159.334 111.462 159.334 111.461 159.334 111.461C159.334 111.461 159.334 111.461 159.334 111.461C159.334 111.461 159.334 111.461 159.334 111.461C159.334 111.46 159.334 111.46 159.334 111.46C159.334 111.46 159.334 111.46 159.334 111.46C159.334 111.46 159.334 111.46 159.334 111.46C159.334 111.459 159.334 111.459 159.334 111.459C159.334 111.459 159.334 111.459 159.334 111.459C159.334 111.459 159.334 111.459 159.334 111.459C159.334 111.458 159.334 111.458 159.334 111.458C159.334 111.458 159.334 111.458 159.334 111.458C159.334 111.458 159.334 111.458 159.334 111.457C159.334 111.457 159.334 111.457 159.334 111.457C159.334 111.457 159.334 111.457 159.334 111.457C159.334 111.457 159.334 111.457 159.334 111.456C159.334 111.456 159.334 111.456 159.334 111.456C159.334 111.456 159.334 111.456 159.334 111.456C159.334 111.456 159.334 111.455 159.334 111.455C159.334 111.455 159.334 111.455 159.334 111.455C159.334 111.455 159.334 111.455 159.334 111.455C159.334 111.454 159.334 111.454 159.334 111.454C159.334 111.454 159.334 111.454 159.334 111.454C159.334 111.454 159.334 111.454 159.334 111.454C159.334 111.453 159.334 111.453 159.334 111.453C159.334 111.453 159.334 111.453 159.334 111.453C159.334 111.453 159.334 111.453 159.334 111.452C159.334 111.452 159.334 111.452 159.334 111.452C159.334 111.452 159.334 111.452 159.334 111.452C159.334 111.452 159.334 111.451 159.334 111.451C159.334 111.451 159.334 111.451 159.334 111.451C159.334 111.451 159.334 111.451 159.334 111.451C159.334 111.45 159.334 111.45 159.334 111.45C159.334 111.45 159.334 111.45 159.334 111.45C159.334 111.45 159.334 111.45 159.334 111.45C159.334 111.449 159.334 111.449 159.334 111.449C159.334 111.449 159.334 111.449 159.334 111.449C159.334 111.449 159.334 111.449 159.334 111.448C159.334 111.448 159.334 111.448 159.334 111.448C159.334 111.448 159.334 111.448 159.334 111.448C159.334 111.448 159.334 111.447 159.334 111.447C159.334 111.447 159.334 111.447 159.334 111.447C159.334 111.447 159.334 111.447 159.334 111.447C159.334 111.446 159.334 111.446 159.334 111.446C159.334 111.446 159.334 111.446 159.334 111.446C159.334 111.446 159.334 111.446 159.334 111.445C159.334 111.445 159.334 111.445 159.334 111.445C159.334 111.445 159.334 111.445 159.334 111.445C159.334 111.445 159.334 111.444 159.334 111.444C159.334 111.444 159.334 111.444 159.334 111.444C159.334 111.444 159.334 111.444 159.334 111.444C159.334 111.443 159.334 111.443 159.334 111.443C159.334 111.443 159.334 111.443 159.334 111.443C159.334 111.443 159.334 111.442 159.334 111.442C159.334 111.442 159.334 111.442 159.334 111.442C159.334 111.442 159.334 111.442 159.334 111.442C159.334 111.441 159.334 111.441 159.334 111.441C159.334 111.441 159.334 111.441 159.334 111.441C159.334 111.441 159.334 111.441 159.334 111.44C159.334 111.44 159.334 111.44 159.334 111.44C159.334 111.44 159.334 111.44 159.334 111.44C159.334 111.44 159.334 111.439 159.334 111.439C159.334 111.439 159.334 111.439 159.334 111.439C159.334 111.439 159.334 111.439 159.334 111.438C159.334 111.438 159.334 111.438 159.334 111.438C159.334 111.438 159.334 111.438 159.334 111.438C159.334 111.438 159.334 111.437 159.334 111.437C159.334 111.437 159.334 111.437 159.334 111.437C159.334 111.437 159.334 111.437 159.334 111.437C159.334 111.436 159.334 111.436 159.334 111.436C159.334 111.436 159.334 111.436 159.334 111.436C159.334 111.436 159.334 111.435 159.334 111.435C159.334 111.435 159.334 111.435 159.334 111.435C159.334 111.435 159.334 111.435 159.334 111.435C159.334 111.434 159.334 111.434 159.334 111.434C159.334 111.434 159.334 111.434 159.334 111.434C159.334 111.434 159.334 111.433 159.334 111.433C159.334 111.433 159.334 111.433 159.334 111.433C159.334 111.433 159.334 111.433 159.334 111.433C159.334 111.432 159.334 111.432 159.334 111.432C159.334 111.432 159.334 111.432 159.334 111.432C159.334 111.432 159.334 111.431 159.334 111.431C159.334 111.431 159.334 111.431 159.334 111.431C159.334 111.431 159.334 111.431 159.334 111.431C159.334 111.43 159.334 111.43 159.334 111.43C159.334 111.43 159.334 111.43 159.334 111.43C159.334 111.43 159.334 111.429 159.334 111.429C159.334 111.429 159.334 111.429 159.334 111.429C159.334 111.429 159.334 111.429 159.334 111.428C159.334 111.428 159.334 111.428 159.334 111.428C159.334 111.428 159.334 111.428 159.334 111.428C159.334 111.428 159.334 111.427 159.334 111.427C159.334 111.427 159.334 111.427 159.334 111.427C159.334 111.427 159.334 111.427 159.334 111.426C159.334 111.426 159.334 111.426 159.334 111.426C159.334 111.426 159.334 111.426 159.334 111.426C159.334 111.425 159.334 111.425 159.334 111.425C159.334 111.425 159.334 111.425 159.334 111.425C159.334 111.425 159.334 111.424 159.334 111.424C159.334 111.424 159.334 111.424 159.334 111.424C159.334 111.424 159.334 111.424 159.334 111.424C159.334 111.423 159.334 111.423 159.334 111.423C159.334 111.423 159.334 111.423 159.334 111.423C159.334 111.423 159.334 111.422 159.334 111.422C159.334 111.422 159.334 111.422 159.334 111.422C159.334 111.422 159.334 111.422 159.334 111.421C159.334 111.421 159.334 111.421 159.334 111.421C159.334 111.421 159.334 111.421 159.334 111.421C159.334 111.42 159.334 111.42 159.334 111.42C159.334 111.42 159.334 111.42 159.334 111.42C159.334 111.42 159.334 111.419 159.334 111.419C159.334 111.419 159.334 111.419 159.334 111.419C159.334 111.419 159.334 111.419 159.334 111.418C159.334 111.418 159.334 111.418 159.334 111.418C159.334 111.418 159.334 111.418 159.334 111.418C159.334 111.417 159.334 111.417 159.334 111.417C159.334 111.417 159.334 111.417 159.334 111.417C159.334 111.417 159.334 111.416 159.334 111.416C159.334 111.416 159.334 111.416 159.334 111.416C159.334 111.416 159.334 111.416 159.334 111.415C159.334 111.415 159.334 111.415 159.334 111.415C159.334 111.415 159.334 111.415 159.334 111.415C159.334 111.414 159.334 111.414 159.334 111.414C159.334 111.414 159.334 111.414 159.334 111.414C159.334 111.414 159.334 111.413 159.334 111.413C159.334 111.413 159.334 111.413 159.334 111.413C159.334 111.413 159.334 111.413 159.334 111.412C159.334 111.412 159.334 111.412 159.334 111.412C159.334 111.412 159.334 111.412 159.334 111.412C159.334 111.411 159.334 111.411 159.334 111.411C159.334 111.411 159.334 111.411 159.334 111.411C159.334 111.411 159.334 111.41 159.334 111.41C159.334 111.41 159.334 111.41 159.334 111.41C159.334 111.41 159.334 111.409 159.334 111.409C159.334 111.409 159.334 111.409 159.334 111.409C159.334 111.409 159.334 111.409 159.334 111.408C159.334 111.408 159.334 111.408 159.334 111.408C159.334 111.408 159.334 111.408 159.334 111.408C159.334 111.407 159.334 111.407 159.334 111.407C159.334 111.407 159.334 111.407 159.334 111.407C159.334 111.407 159.334 111.406 159.334 111.406C159.334 111.406 159.334 111.406 159.334 111.406C159.334 111.406 159.334 111.405 159.334 111.405C159.334 111.405 159.334 111.405 159.334 111.405C159.334 111.405 159.334 111.405 159.334 111.404C159.334 111.404 159.334 111.404 159.334 111.404C159.334 111.404 159.334 111.404 159.334 111.404C159.334 111.403 159.334 111.403 159.334 111.403C159.334 111.403 159.334 111.403 159.334 111.403C159.334 111.402 159.334 111.402 159.334 111.402C159.334 111.402 159.334 111.402 159.334 111.402C159.334 111.402 159.334 111.401 159.334 111.401C159.334 111.401 159.334 111.401 159.334 111.401C159.334 111.401 159.334 111.401 159.334 111.4C159.334 111.4 159.334 111.4 159.334 111.4C159.334 111.4 159.334 111.4 159.334 111.399C159.334 111.399 159.334 111.399 159.334 111.399C159.334 111.399 159.334 111.399 159.334 111.399C159.334 111.398 159.334 111.398 159.334 111.398C159.334 111.398 159.334 111.398 159.334 111.398C159.334 111.397 159.334 111.397 159.334 111.397C159.334 111.397 159.334 111.397 159.334 111.397C159.334 111.397 159.334 111.396 159.334 111.396C159.334 111.396 159.334 111.396 159.334 111.396C159.334 111.396 159.334 111.395 159.334 111.395C159.334 111.395 159.334 111.395 159.334 111.395C159.334 111.395 159.334 111.395 159.334 111.394C159.334 111.394 159.334 111.394 159.334 111.394C159.334 111.394 159.334 111.394 159.334 111.393C159.334 111.393 159.334 111.393 159.334 111.393C159.334 111.393 159.334 111.393 159.334 111.392C159.334 111.392 159.334 111.392 159.334 111.392C159.334 111.392 159.334 111.392 159.334 111.392C159.334 111.391 159.334 111.391 159.334 111.391C159.334 111.391 159.334 111.391 159.334 111.391C159.334 111.39 159.334 111.39 159.334 111.39C159.334 111.39 159.334 111.39 159.334 111.39C159.334 111.389 159.334 111.389 159.334 111.389C159.334 111.389 159.334 111.389 159.334 111.389C159.334 111.389 159.334 111.388 159.334 111.388C159.334 111.388 159.334 111.388 159.334 111.388C159.334 111.388 159.334 111.387 159.334 111.387C159.334 111.387 159.334 111.387 159.334 111.387C159.334 111.387 159.334 111.386 159.334 111.386C159.334 111.386 159.334 111.386 159.334 111.386C159.334 111.386 159.334 111.386 159.334 111.385C159.334 111.385 159.334 111.385 159.334 111.385C159.334 111.385 159.334 111.385 159.334 111.384C159.334 111.384 159.334 111.384 159.334 111.384C159.334 111.384 159.334 111.384 159.334 111.383C159.334 111.383 159.334 111.383 159.334 111.383C159.334 111.383 159.334 111.383 159.334 111.382C159.334 111.382 159.334 111.382 159.334 111.382C159.334 111.382 159.334 111.382 159.334 111.381C159.334 111.381 159.334 111.381 159.334 111.381C159.334 111.381 159.334 111.381 159.334 111.381C159.334 111.38 159.334 111.38 159.334 111.38C159.334 111.38 159.334 111.38 159.334 111.38C159.334 111.379 159.334 111.379 159.334 111.379C159.334 111.379 159.334 111.379 159.334 111.379C159.334 111.378 159.334 111.378 159.334 111.378C159.334 111.378 159.334 111.378 159.334 111.378C159.334 111.377 159.334 111.377 159.334 111.377C159.334 111.377 159.334 111.377 159.334 111.377C159.334 111.376 159.334 111.376 159.334 111.376C159.334 111.376 159.334 111.376 159.334 111.376C159.334 111.375 159.334 111.375 159.334 111.375C159.334 111.375 159.334 111.375 159.334 111.375C159.334 111.374 159.334 111.374 159.334 111.374C159.334 111.374 159.334 111.374 159.334 111.374C159.334 111.373 159.334 111.373 159.334 111.373C159.334 111.373 159.334 111.373 159.334 111.373C159.334 111.372 159.334 111.372 159.334 111.372C159.334 111.372 159.334 111.372 159.334 111.372C159.334 111.371 159.334 111.371 159.334 111.371C159.334 111.371 159.334 111.371 159.334 111.371C159.334 111.37 159.334 111.37 159.334 111.37C159.334 111.37 159.334 111.37 159.334 111.37C159.334 111.369 159.334 111.369 159.334 111.369C159.334 111.369 159.334 111.369 159.334 111.369C159.334 111.368 159.334 111.368 159.334 111.368C159.334 111.368 159.334 111.368 159.334 111.368C159.334 111.367 159.334 111.367 159.334 111.367C159.334 111.367 159.334 111.367 159.334 111.367C159.334 111.366 159.334 111.366 159.334 111.366C159.334 111.366 159.334 111.366 159.334 111.366C159.334 111.365 159.334 111.365 159.334 111.365C159.334 111.365 159.334 111.365 159.334 111.365C159.334 111.364 159.334 111.364 159.334 111.364C159.334 111.364 159.334 111.364 159.334 111.364C159.334 111.363 159.334 111.363 159.334 111.363C159.334 111.363 159.334 111.363 159.334 111.362C159.334 111.362 159.334 111.362 159.334 111.362C159.334 111.362 159.334 111.362 159.334 111.361C159.334 111.361 159.334 111.361 159.334 111.361C159.334 111.361 159.334 111.361 159.334 111.36C159.334 111.36 159.334 111.36 159.334 111.36C159.334 111.36 159.334 111.36 159.334 111.359C159.334 111.359 159.334 111.359 159.334 111.359C159.334 111.359 159.334 111.359 159.334 111.358C159.334 111.358 159.334 111.358 159.334 111.358C159.334 111.358 159.334 111.357 159.334 111.357C159.334 111.357 159.334 111.357 159.334 111.357C159.334 111.357 159.334 111.356 159.334 111.356C159.334 111.356 159.334 111.356 159.334 111.356C159.334 111.356 159.334 111.355 159.334 111.355C159.334 111.355 159.334 111.355 159.334 111.355C159.334 111.355 159.334 111.354 159.334 111.354C159.334 111.354 159.334 111.354 159.334 111.354C159.334 111.353 159.334 111.353 159.334 111.353C159.334 111.353 159.334 111.353 159.334 111.353C159.334 111.352 159.334 111.352 159.334 111.352C159.334 111.352 159.334 111.352 159.334 111.352C159.334 111.351 159.334 111.351 159.334 111.351C159.334 111.351 159.334 111.351 159.334 111.35C159.334 111.35 159.334 111.35 159.334 111.35C159.334 111.35 159.334 111.35 159.334 111.349C159.334 111.349 159.334 111.349 159.334 111.349C159.334 111.349 159.334 111.349 159.334 111.348C159.334 111.348 159.334 111.348 159.334 111.348C159.334 111.348 159.334 111.347 159.334 111.347C159.334 111.347 159.334 111.347 159.334 111.347C159.334 111.347 159.334 111.346 159.334 111.346C159.334 111.346 159.334 111.346 159.334 111.346C159.334 111.346 159.334 111.345 159.334 111.345C159.334 111.345 159.334 111.345 159.334 111.345C159.334 111.344 159.334 111.344 159.334 111.344C159.334 111.344 159.334 111.344 159.334 111.344C159.334 111.343 159.334 111.343 159.334 111.343C159.334 111.343 159.334 111.343 159.334 111.342C159.334 111.342 159.334 111.342 159.334 111.342C159.334 111.342 159.334 111.342 159.334 111.341C159.334 111.341 159.334 111.341 159.334 111.341C159.334 111.341 159.334 111.34 159.334 111.34C159.334 111.34 159.334 111.34 159.334 111.34C159.334 111.34 159.334 111.339 159.334 111.339C159.334 111.339 159.334 111.339 159.334 111.339C159.334 111.338 159.334 111.338 159.334 111.338C159.334 111.338 159.334 111.338 159.334 111.338C159.334 111.337 159.334 111.337 159.334 111.337C159.334 111.337 159.334 111.337 159.334 111.336C159.334 111.336 159.334 111.336 159.334 111.336C159.334 111.336 159.334 111.336 159.334 111.335C159.334 111.335 159.334 111.335 159.334 111.335C159.334 111.335 159.334 111.334 159.334 111.334C159.334 111.334 159.334 111.334 159.334 111.334C159.334 111.333 159.334 111.333 159.334 111.333C159.334 111.333 159.334 111.333 159.334 111.333C159.334 111.332 159.334 111.332 159.334 111.332C159.334 111.332 159.334 111.332 159.334 111.331C159.334 111.331 159.334 111.331 159.334 111.331C159.334 111.331 159.334 111.331 159.334 111.33C159.334 111.33 159.334 111.33 159.334 111.33C159.334 111.33 159.334 111.329 159.334 111.329C159.334 111.329 159.334 111.329 159.334 111.329C159.334 111.328 159.334 111.328 159.334 111.328C159.334 111.328 159.334 111.328 159.334 111.328C159.334 111.327 159.334 111.327 159.334 111.327C159.334 111.327 159.334 111.327 159.334 111.326C159.334 111.326 159.334 111.326 159.334 111.326C159.334 111.326 159.334 111.325 159.334 111.325C159.334 111.325 159.334 111.325 159.334 111.325C159.334 111.325 159.334 111.324 159.334 111.324C159.334 111.324 159.334 111.324 159.334 111.324C159.334 111.323 159.334 111.323 159.334 111.323C159.334 111.323 159.334 111.323 159.334 111.322C159.334 111.322 159.334 111.322 159.334 111.322C159.334 111.322 159.334 111.322 159.334 111.321C159.334 111.321 159.334 111.321 159.334 111.321C159.334 111.321 159.334 111.32 159.334 111.32C159.334 111.32 159.334 111.32 159.334 111.32C159.334 111.319 159.334 111.319 159.334 111.319C159.334 111.319 159.334 111.319 159.334 111.318C159.334 111.318 159.334 111.318 159.334 111.318C159.334 111.318 159.334 111.318 159.334 111.317C159.334 111.317 159.334 111.317 159.334 111.317C159.334 111.317 159.334 111.316 159.334 111.316C159.334 111.316 159.334 111.316 159.334 111.316C159.334 111.315 159.334 111.315 159.334 111.315C159.334 111.315 159.334 111.315 159.334 111.314C159.334 111.314 159.334 111.314 159.334 111.314C159.334 111.314 159.334 111.313 159.334 111.313C159.334 111.313 159.334 111.313 159.334 111.313C159.334 111.313 159.334 111.312 159.334 111.312C159.334 111.312 159.334 111.312 159.334 111.312C159.334 111.311 159.334 111.311 159.334 111.311C159.334 111.311 159.334 111.311 159.334 111.31C159.334 111.31 159.334 111.31 159.334 111.31C159.334 111.31 159.334 111.309 159.334 111.309C159.334 111.309 159.334 111.309 159.334 111.309C159.334 111.308 159.334 111.308 159.334 111.308C159.334 111.308 159.334 111.308 159.334 111.307C159.334 111.307 159.334 111.307 159.334 111.307C159.334 111.307 159.334 111.306 159.334 111.306C159.334 111.306 159.334 111.306 159.334 111.306C159.334 111.305 159.334 111.305 159.334 111.305C159.334 111.305 159.334 111.305 159.334 111.305C159.334 111.304 159.334 111.304 159.334 111.304C159.334 111.304 159.334 111.304 159.334 111.303C159.334 111.303 159.334 111.303 159.334 111.303C159.334 111.303 159.334 111.302 159.334 111.302C159.334 111.302 159.334 111.302 159.334 111.302C159.334 111.301 159.334 111.301 159.334 111.301C159.334 111.301 159.334 111.301 159.334 111.3C159.334 111.3 159.334 111.3 159.334 111.3C159.334 111.3 159.334 111.299 159.334 111.299C159.334 111.299 159.334 111.299 159.334 111.299C159.334 111.298 159.334 111.298 159.334 111.298C159.334 111.298 159.334 111.298 159.334 111.297C159.334 111.297 159.334 111.297 159.334 111.297C159.334 111.297 159.334 111.296 159.334 111.296C159.334 111.296 159.334 111.296 159.334 111.296C159.334 111.295 159.334 111.295 159.334 111.295C159.334 111.295 159.334 111.295 159.334 111.294C159.334 111.294 159.334 111.294 159.334 111.294C159.334 111.294 159.334 111.293 159.334 111.293C159.334 111.293 159.334 111.293 159.334 111.293C159.334 111.292 159.334 111.292 159.334 111.292C159.334 111.292 159.334 111.292 159.334 111.291C159.334 111.291 159.334 111.291 159.334 111.291C159.334 111.291 159.334 111.29 159.334 111.29C159.334 111.29 159.334 111.29 159.334 111.29C159.334 111.289 159.334 111.289 159.334 111.289C159.334 111.289 159.334 111.288 159.334 111.288C159.334 111.288 159.334 111.288 159.334 111.288C159.334 111.287 159.334 111.287 159.334 111.287C159.334 111.287 159.334 111.287 159.334 111.286C159.334 111.286 159.334 111.286 159.334 111.286C159.334 111.286 159.334 111.285 159.334 111.285C159.334 111.285 159.334 111.285 159.334 111.285C159.334 111.284 159.334 111.284 159.334 111.284C159.334 111.284 159.334 111.284 159.334 111.283C159.334 111.283 159.334 111.283 159.334 111.283C159.334 111.283 159.334 111.282 159.334 111.282C159.334 111.282 159.334 111.282 159.334 111.282C159.334 111.281 159.334 111.281 159.334 111.281C159.334 111.281 159.334 111.281 159.334 111.28C159.334 111.28 159.334 111.28 159.334 111.28C159.334 111.279 159.334 111.279 159.334 111.279C159.334 111.279 159.334 111.279 159.334 111.278C159.334 111.278 159.334 111.278 159.334 111.278C159.334 111.278 159.334 111.277 159.334 111.277C159.334 111.277 159.334 111.277 159.334 111.277C159.334 111.276 159.334 111.276 159.334 111.276H158.334H157.334C157.334 111.276 157.334 111.276 157.334 111.277C157.334 111.277 157.334 111.277 157.334 111.277C157.334 111.277 157.334 111.278 157.334 111.278C157.334 111.278 157.334 111.278 157.334 111.278C157.334 111.279 157.334 111.279 157.334 111.279C157.334 111.279 157.334 111.279 157.334 111.28C157.334 111.28 157.334 111.28 157.334 111.28C157.334 111.281 157.334 111.281 157.334 111.281C157.334 111.281 157.334 111.281 157.334 111.282C157.334 111.282 157.334 111.282 157.334 111.282C157.334 111.282 157.334 111.283 157.334 111.283C157.334 111.283 157.334 111.283 157.334 111.283C157.334 111.284 157.334 111.284 157.334 111.284C157.334 111.284 157.334 111.284 157.334 111.285C157.334 111.285 157.334 111.285 157.334 111.285C157.334 111.285 157.334 111.286 157.334 111.286C157.334 111.286 157.334 111.286 157.334 111.286C157.334 111.287 157.334 111.287 157.334 111.287C157.334 111.287 157.334 111.287 157.334 111.288C157.334 111.288 157.334 111.288 157.334 111.288C157.334 111.288 157.334 111.289 157.334 111.289C157.334 111.289 157.334 111.289 157.334 111.29C157.334 111.29 157.334 111.29 157.334 111.29C157.334 111.29 157.334 111.291 157.334 111.291C157.334 111.291 157.334 111.291 157.334 111.291C157.334 111.292 157.334 111.292 157.334 111.292C157.334 111.292 157.334 111.292 157.334 111.293C157.334 111.293 157.334 111.293 157.334 111.293C157.334 111.293 157.334 111.294 157.334 111.294C157.334 111.294 157.334 111.294 157.334 111.294C157.334 111.295 157.334 111.295 157.334 111.295C157.334 111.295 157.334 111.295 157.334 111.296C157.334 111.296 157.334 111.296 157.334 111.296C157.334 111.296 157.334 111.297 157.334 111.297C157.334 111.297 157.334 111.297 157.334 111.297C157.334 111.298 157.334 111.298 157.334 111.298C157.334 111.298 157.334 111.298 157.334 111.299C157.334 111.299 157.334 111.299 157.334 111.299C157.334 111.299 157.334 111.3 157.334 111.3C157.334 111.3 157.334 111.3 157.334 111.3C157.334 111.301 157.334 111.301 157.334 111.301C157.334 111.301 157.334 111.301 157.334 111.302C157.334 111.302 157.334 111.302 157.334 111.302C157.334 111.302 157.334 111.303 157.334 111.303C157.334 111.303 157.334 111.303 157.334 111.303C157.334 111.304 157.334 111.304 157.334 111.304C157.334 111.304 157.334 111.304 157.334 111.305C157.334 111.305 157.334 111.305 157.334 111.305C157.334 111.305 157.334 111.305 157.334 111.306C157.334 111.306 157.334 111.306 157.334 111.306C157.334 111.306 157.334 111.307 157.334 111.307C157.334 111.307 157.334 111.307 157.334 111.307C157.334 111.308 157.334 111.308 157.334 111.308C157.334 111.308 157.334 111.308 157.334 111.309C157.334 111.309 157.334 111.309 157.334 111.309C157.334 111.309 157.334 111.31 157.334 111.31C157.334 111.31 157.334 111.31 157.334 111.31C157.334 111.311 157.334 111.311 157.334 111.311C157.334 111.311 157.334 111.311 157.334 111.312C157.334 111.312 157.334 111.312 157.334 111.312C157.334 111.312 157.334 111.313 157.334 111.313C157.334 111.313 157.334 111.313 157.334 111.313C157.334 111.313 157.334 111.314 157.334 111.314C157.334 111.314 157.334 111.314 157.334 111.314C157.334 111.315 157.334 111.315 157.334 111.315C157.334 111.315 157.334 111.315 157.334 111.316C157.334 111.316 157.334 111.316 157.334 111.316C157.334 111.316 157.334 111.317 157.334 111.317C157.334 111.317 157.334 111.317 157.334 111.317C157.334 111.318 157.334 111.318 157.334 111.318C157.334 111.318 157.334 111.318 157.334 111.318C157.334 111.319 157.334 111.319 157.334 111.319C157.334 111.319 157.334 111.319 157.334 111.32C157.334 111.32 157.334 111.32 157.334 111.32C157.334 111.32 157.334 111.321 157.334 111.321C157.334 111.321 157.334 111.321 157.334 111.321C157.334 111.322 157.334 111.322 157.334 111.322C157.334 111.322 157.334 111.322 157.334 111.322C157.334 111.323 157.334 111.323 157.334 111.323C157.334 111.323 157.334 111.323 157.334 111.324C157.334 111.324 157.334 111.324 157.334 111.324C157.334 111.324 157.334 111.325 157.334 111.325C157.334 111.325 157.334 111.325 157.334 111.325C157.334 111.325 157.334 111.326 157.334 111.326C157.334 111.326 157.334 111.326 157.334 111.326C157.334 111.327 157.334 111.327 157.334 111.327C157.334 111.327 157.334 111.327 157.334 111.328C157.334 111.328 157.334 111.328 157.334 111.328C157.334 111.328 157.334 111.328 157.334 111.329C157.334 111.329 157.334 111.329 157.334 111.329C157.334 111.329 157.334 111.33 157.334 111.33C157.334 111.33 157.334 111.33 157.334 111.33C157.334 111.331 157.334 111.331 157.334 111.331C157.334 111.331 157.334 111.331 157.334 111.331C157.334 111.332 157.334 111.332 157.334 111.332C157.334 111.332 157.334 111.332 157.334 111.333C157.334 111.333 157.334 111.333 157.334 111.333C157.334 111.333 157.334 111.333 157.334 111.334C157.334 111.334 157.334 111.334 157.334 111.334C157.334 111.334 157.334 111.335 157.334 111.335C157.334 111.335 157.334 111.335 157.334 111.335C157.334 111.336 157.334 111.336 157.334 111.336C157.334 111.336 157.334 111.336 157.334 111.336C157.334 111.337 157.334 111.337 157.334 111.337C157.334 111.337 157.334 111.337 157.334 111.338C157.334 111.338 157.334 111.338 157.334 111.338C157.334 111.338 157.334 111.338 157.334 111.339C157.334 111.339 157.334 111.339 157.334 111.339C157.334 111.339 157.334 111.34 157.334 111.34C157.334 111.34 157.334 111.34 157.334 111.34C157.334 111.34 157.334 111.341 157.334 111.341C157.334 111.341 157.334 111.341 157.334 111.341C157.334 111.342 157.334 111.342 157.334 111.342C157.334 111.342 157.334 111.342 157.334 111.342C157.334 111.343 157.334 111.343 157.334 111.343C157.334 111.343 157.334 111.343 157.334 111.344C157.334 111.344 157.334 111.344 157.334 111.344C157.334 111.344 157.334 111.344 157.334 111.345C157.334 111.345 157.334 111.345 157.334 111.345C157.334 111.345 157.334 111.346 157.334 111.346C157.334 111.346 157.334 111.346 157.334 111.346C157.334 111.346 157.334 111.347 157.334 111.347C157.334 111.347 157.334 111.347 157.334 111.347C157.334 111.347 157.334 111.348 157.334 111.348C157.334 111.348 157.334 111.348 157.334 111.348C157.334 111.349 157.334 111.349 157.334 111.349C157.334 111.349 157.334 111.349 157.334 111.349C157.334 111.35 157.334 111.35 157.334 111.35C157.334 111.35 157.334 111.35 157.334 111.35C157.334 111.351 157.334 111.351 157.334 111.351C157.334 111.351 157.334 111.351 157.334 111.352C157.334 111.352 157.334 111.352 157.334 111.352C157.334 111.352 157.334 111.352 157.334 111.353C157.334 111.353 157.334 111.353 157.334 111.353C157.334 111.353 157.334 111.353 157.334 111.354C157.334 111.354 157.334 111.354 157.334 111.354C157.334 111.354 157.334 111.355 157.334 111.355C157.334 111.355 157.334 111.355 157.334 111.355C157.334 111.355 157.334 111.356 157.334 111.356C157.334 111.356 157.334 111.356 157.334 111.356C157.334 111.356 157.334 111.357 157.334 111.357C157.334 111.357 157.334 111.357 157.334 111.357C157.334 111.357 157.334 111.358 157.334 111.358C157.334 111.358 157.334 111.358 157.334 111.358C157.334 111.359 157.334 111.359 157.334 111.359C157.334 111.359 157.334 111.359 157.334 111.359C157.334 111.36 157.334 111.36 157.334 111.36C157.334 111.36 157.334 111.36 157.334 111.36C157.334 111.361 157.334 111.361 157.334 111.361C157.334 111.361 157.334 111.361 157.334 111.361C157.334 111.362 157.334 111.362 157.334 111.362C157.334 111.362 157.334 111.362 157.334 111.362C157.334 111.363 157.334 111.363 157.334 111.363C157.334 111.363 157.334 111.363 157.334 111.364C157.334 111.364 157.334 111.364 157.334 111.364C157.334 111.364 157.334 111.364 157.334 111.365C157.334 111.365 157.334 111.365 157.334 111.365C157.334 111.365 157.334 111.365 157.334 111.366C157.334 111.366 157.334 111.366 157.334 111.366C157.334 111.366 157.334 111.366 157.334 111.367C157.334 111.367 157.334 111.367 157.334 111.367C157.334 111.367 157.334 111.367 157.334 111.368C157.334 111.368 157.334 111.368 157.334 111.368C157.334 111.368 157.334 111.368 157.334 111.369C157.334 111.369 157.334 111.369 157.334 111.369C157.334 111.369 157.334 111.369 157.334 111.37C157.334 111.37 157.334 111.37 157.334 111.37C157.334 111.37 157.334 111.37 157.334 111.371C157.334 111.371 157.334 111.371 157.334 111.371C157.334 111.371 157.334 111.371 157.334 111.372C157.334 111.372 157.334 111.372 157.334 111.372C157.334 111.372 157.334 111.372 157.334 111.373C157.334 111.373 157.334 111.373 157.334 111.373C157.334 111.373 157.334 111.373 157.334 111.374C157.334 111.374 157.334 111.374 157.334 111.374C157.334 111.374 157.334 111.374 157.334 111.375C157.334 111.375 157.334 111.375 157.334 111.375C157.334 111.375 157.334 111.375 157.334 111.376C157.334 111.376 157.334 111.376 157.334 111.376C157.334 111.376 157.334 111.376 157.334 111.377C157.334 111.377 157.334 111.377 157.334 111.377C157.334 111.377 157.334 111.377 157.334 111.378C157.334 111.378 157.334 111.378 157.334 111.378C157.334 111.378 157.334 111.378 157.334 111.379C157.334 111.379 157.334 111.379 157.334 111.379C157.334 111.379 157.334 111.379 157.334 111.38C157.334 111.38 157.334 111.38 157.334 111.38C157.334 111.38 157.334 111.38 157.334 111.381C157.334 111.381 157.334 111.381 157.334 111.381C157.334 111.381 157.334 111.381 157.334 111.381C157.334 111.382 157.334 111.382 157.334 111.382C157.334 111.382 157.334 111.382 157.334 111.382C157.334 111.383 157.334 111.383 157.334 111.383C157.334 111.383 157.334 111.383 157.334 111.383C157.334 111.384 157.334 111.384 157.334 111.384C157.334 111.384 157.334 111.384 157.334 111.384C157.334 111.385 157.334 111.385 157.334 111.385C157.334 111.385 157.334 111.385 157.334 111.385C157.334 111.386 157.334 111.386 157.334 111.386C157.334 111.386 157.334 111.386 157.334 111.386C157.334 111.386 157.334 111.387 157.334 111.387C157.334 111.387 157.334 111.387 157.334 111.387C157.334 111.387 157.334 111.388 157.334 111.388C157.334 111.388 157.334 111.388 157.334 111.388C157.334 111.388 157.334 111.389 157.334 111.389C157.334 111.389 157.334 111.389 157.334 111.389C157.334 111.389 157.334 111.389 157.334 111.39C157.334 111.39 157.334 111.39 157.334 111.39C157.334 111.39 157.334 111.39 157.334 111.391C157.334 111.391 157.334 111.391 157.334 111.391C157.334 111.391 157.334 111.391 157.334 111.392C157.334 111.392 157.334 111.392 157.334 111.392C157.334 111.392 157.334 111.392 157.334 111.392C157.334 111.393 157.334 111.393 157.334 111.393C157.334 111.393 157.334 111.393 157.334 111.393C157.334 111.394 157.334 111.394 157.334 111.394C157.334 111.394 157.334 111.394 157.334 111.394C157.334 111.395 157.334 111.395 157.334 111.395C157.334 111.395 157.334 111.395 157.334 111.395C157.334 111.395 157.334 111.396 157.334 111.396C157.334 111.396 157.334 111.396 157.334 111.396C157.334 111.396 157.334 111.397 157.334 111.397C157.334 111.397 157.334 111.397 157.334 111.397C157.334 111.397 157.334 111.397 157.334 111.398C157.334 111.398 157.334 111.398 157.334 111.398C157.334 111.398 157.334 111.398 157.334 111.399C157.334 111.399 157.334 111.399 157.334 111.399C157.334 111.399 157.334 111.399 157.334 111.399C157.334 111.4 157.334 111.4 157.334 111.4C157.334 111.4 157.334 111.4 157.334 111.4C157.334 111.401 157.334 111.401 157.334 111.401C157.334 111.401 157.334 111.401 157.334 111.401C157.334 111.401 157.334 111.402 157.334 111.402C157.334 111.402 157.334 111.402 157.334 111.402C157.334 111.402 157.334 111.402 157.334 111.403C157.334 111.403 157.334 111.403 157.334 111.403C157.334 111.403 157.334 111.403 157.334 111.404C157.334 111.404 157.334 111.404 157.334 111.404C157.334 111.404 157.334 111.404 157.334 111.404C157.334 111.405 157.334 111.405 157.334 111.405C157.334 111.405 157.334 111.405 157.334 111.405C157.334 111.405 157.334 111.406 157.334 111.406C157.334 111.406 157.334 111.406 157.334 111.406C157.334 111.406 157.334 111.407 157.334 111.407C157.334 111.407 157.334 111.407 157.334 111.407C157.334 111.407 157.334 111.407 157.334 111.408C157.334 111.408 157.334 111.408 157.334 111.408C157.334 111.408 157.334 111.408 157.334 111.408C157.334 111.409 157.334 111.409 157.334 111.409C157.334 111.409 157.334 111.409 157.334 111.409C157.334 111.409 157.334 111.41 157.334 111.41C157.334 111.41 157.334 111.41 157.334 111.41C157.334 111.41 157.334 111.411 157.334 111.411C157.334 111.411 157.334 111.411 157.334 111.411C157.334 111.411 157.334 111.411 157.334 111.412C157.334 111.412 157.334 111.412 157.334 111.412C157.334 111.412 157.334 111.412 157.334 111.412C157.334 111.413 157.334 111.413 157.334 111.413C157.334 111.413 157.334 111.413 157.334 111.413C157.334 111.413 157.334 111.414 157.334 111.414C157.334 111.414 157.334 111.414 157.334 111.414C157.334 111.414 157.334 111.414 157.334 111.415C157.334 111.415 157.334 111.415 157.334 111.415C157.334 111.415 157.334 111.415 157.334 111.415C157.334 111.416 157.334 111.416 157.334 111.416C157.334 111.416 157.334 111.416 157.334 111.416C157.334 111.416 157.334 111.417 157.334 111.417C157.334 111.417 157.334 111.417 157.334 111.417C157.334 111.417 157.334 111.417 157.334 111.418C157.334 111.418 157.334 111.418 157.334 111.418C157.334 111.418 157.334 111.418 157.334 111.418C157.334 111.419 157.334 111.419 157.334 111.419C157.334 111.419 157.334 111.419 157.334 111.419C157.334 111.419 157.334 111.42 157.334 111.42C157.334 111.42 157.334 111.42 157.334 111.42C157.334 111.42 157.334 111.42 157.334 111.421C157.334 111.421 157.334 111.421 157.334 111.421C157.334 111.421 157.334 111.421 157.334 111.421C157.334 111.422 157.334 111.422 157.334 111.422C157.334 111.422 157.334 111.422 157.334 111.422C157.334 111.422 157.334 111.423 157.334 111.423C157.334 111.423 157.334 111.423 157.334 111.423C157.334 111.423 157.334 111.423 157.334 111.424C157.334 111.424 157.334 111.424 157.334 111.424C157.334 111.424 157.334 111.424 157.334 111.424C157.334 111.424 157.334 111.425 157.334 111.425C157.334 111.425 157.334 111.425 157.334 111.425C157.334 111.425 157.334 111.425 157.334 111.426C157.334 111.426 157.334 111.426 157.334 111.426C157.334 111.426 157.334 111.426 157.334 111.426C157.334 111.427 157.334 111.427 157.334 111.427C157.334 111.427 157.334 111.427 157.334 111.427C157.334 111.427 157.334 111.428 157.334 111.428C157.334 111.428 157.334 111.428 157.334 111.428C157.334 111.428 157.334 111.428 157.334 111.428C157.334 111.429 157.334 111.429 157.334 111.429C157.334 111.429 157.334 111.429 157.334 111.429C157.334 111.429 157.334 111.43 157.334 111.43C157.334 111.43 157.334 111.43 157.334 111.43C157.334 111.43 157.334 111.43 157.334 111.431C157.334 111.431 157.334 111.431 157.334 111.431C157.334 111.431 157.334 111.431 157.334 111.431C157.334 111.431 157.334 111.432 157.334 111.432C157.334 111.432 157.334 111.432 157.334 111.432C157.334 111.432 157.334 111.432 157.334 111.433C157.334 111.433 157.334 111.433 157.334 111.433C157.334 111.433 157.334 111.433 157.334 111.433C157.334 111.433 157.334 111.434 157.334 111.434C157.334 111.434 157.334 111.434 157.334 111.434C157.334 111.434 157.334 111.434 157.334 111.435C157.334 111.435 157.334 111.435 157.334 111.435C157.334 111.435 157.334 111.435 157.334 111.435C157.334 111.435 157.334 111.436 157.334 111.436C157.334 111.436 157.334 111.436 157.334 111.436C157.334 111.436 157.334 111.436 157.334 111.437C157.334 111.437 157.334 111.437 157.334 111.437C157.334 111.437 157.334 111.437 157.334 111.437C157.334 111.437 157.334 111.438 157.334 111.438C157.334 111.438 157.334 111.438 157.334 111.438C157.334 111.438 157.334 111.438 157.334 111.438C157.334 111.439 157.334 111.439 157.334 111.439C157.334 111.439 157.334 111.439 157.334 111.439C157.334 111.439 157.334 111.44 157.334 111.44C157.334 111.44 157.334 111.44 157.334 111.44C157.334 111.44 157.334 111.44 157.334 111.44C157.334 111.441 157.334 111.441 157.334 111.441C157.334 111.441 157.334 111.441 157.334 111.441C157.334 111.441 157.334 111.441 157.334 111.442C157.334 111.442 157.334 111.442 157.334 111.442C157.334 111.442 157.334 111.442 157.334 111.442C157.334 111.442 157.334 111.443 157.334 111.443C157.334 111.443 157.334 111.443 157.334 111.443C157.334 111.443 157.334 111.443 157.334 111.444C157.334 111.444 157.334 111.444 157.334 111.444C157.334 111.444 157.334 111.444 157.334 111.444C157.334 111.444 157.334 111.445 157.334 111.445C157.334 111.445 157.334 111.445 157.334 111.445C157.334 111.445 157.334 111.445 157.334 111.445C157.334 111.446 157.334 111.446 157.334 111.446C157.334 111.446 157.334 111.446 157.334 111.446C157.334 111.446 157.334 111.446 157.334 111.447C157.334 111.447 157.334 111.447 157.334 111.447C157.334 111.447 157.334 111.447 157.334 111.447C157.334 111.447 157.334 111.448 157.334 111.448C157.334 111.448 157.334 111.448 157.334 111.448C157.334 111.448 157.334 111.448 157.334 111.448C157.334 111.449 157.334 111.449 157.334 111.449C157.334 111.449 157.334 111.449 157.334 111.449C157.334 111.449 157.334 111.449 157.334 111.45C157.334 111.45 157.334 111.45 157.334 111.45C157.334 111.45 157.334 111.45 157.334 111.45C157.334 111.45 157.334 111.45 157.334 111.451C157.334 111.451 157.334 111.451 157.334 111.451C157.334 111.451 157.334 111.451 157.334 111.451C157.334 111.451 157.334 111.452 157.334 111.452C157.334 111.452 157.334 111.452 157.334 111.452C157.334 111.452 157.334 111.452 157.334 111.452C157.334 111.453 157.334 111.453 157.334 111.453C157.334 111.453 157.334 111.453 157.334 111.453C157.334 111.453 157.334 111.453 157.334 111.454C157.334 111.454 157.334 111.454 157.334 111.454C157.334 111.454 157.334 111.454 157.334 111.454C157.334 111.454 157.334 111.454 157.334 111.455C157.334 111.455 157.334 111.455 157.334 111.455C157.334 111.455 157.334 111.455 157.334 111.455C157.334 111.455 157.334 111.456 157.334 111.456C157.334 111.456 157.334 111.456 157.334 111.456C157.334 111.456 157.334 111.456 157.334 111.456C157.334 111.457 157.334 111.457 157.334 111.457C157.334 111.457 157.334 111.457 157.334 111.457C157.334 111.457 157.334 111.457 157.334 111.457C157.334 111.458 157.334 111.458 157.334 111.458C157.334 111.458 157.334 111.458 157.334 111.458C157.334 111.458 157.334 111.458 157.334 111.459C157.334 111.459 157.334 111.459 157.334 111.459C157.334 111.459 157.334 111.459 157.334 111.459C157.334 111.459 157.334 111.459 157.334 111.46C157.334 111.46 157.334 111.46 157.334 111.46C157.334 111.46 157.334 111.46 157.334 111.46C157.334 111.46 157.334 111.46 157.334 111.461C157.334 111.461 157.334 111.461 157.334 111.461C157.334 111.461 157.334 111.461 157.334 111.461C157.334 111.461 157.334 111.462 157.334 111.462C157.334 111.462 157.334 111.462 157.334 111.462C157.334 111.462 157.334 111.462 157.334 111.462C157.334 111.462 157.334 111.463 157.334 111.463C157.334 111.463 157.334 111.463 157.334 111.463C157.334 111.463 157.334 111.463 157.334 111.463C157.334 111.463 157.334 111.464 157.334 111.464C157.334 111.464 157.334 111.464 157.334 111.464C157.334 111.464 157.334 111.464 157.334 111.464C157.334 111.464 157.334 111.465 157.334 111.465C157.334 111.465 157.334 111.465 157.334 111.465C157.334 111.465 157.334 111.465 157.334 111.465C157.334 111.466 157.334 111.466 157.334 111.466C157.334 111.466 157.334 111.466 157.334 111.466C157.334 111.466 157.334 111.466 157.334 111.466C157.334 111.467 157.334 111.467 157.334 111.467C157.334 111.467 157.334 111.467 157.334 111.467C157.334 111.467 157.334 111.467 157.334 111.467C157.334 111.468 157.334 111.468 157.334 111.468C157.334 111.468 157.334 111.468 157.334 111.468C157.334 111.468 157.334 111.468 157.334 111.468C157.334 111.469 157.334 111.469 157.334 111.469C157.334 111.469 157.334 111.469 157.334 111.469C157.334 111.469 157.334 111.469 157.334 111.469C157.334 111.469 157.334 111.47 157.334 111.47C157.334 111.47 157.334 111.47 157.334 111.47C157.334 111.47 157.334 111.47 157.334 111.47C157.334 111.47 157.334 111.471 157.334 111.471C157.334 111.471 157.334 111.471 157.334 111.471C157.334 111.471 157.334 111.471 157.334 111.471C157.334 111.471 157.334 111.472 157.334 111.472C157.334 111.472 157.334 111.472 157.334 111.472C157.334 111.472 157.334 111.472 157.334 111.472C157.334 111.472 157.334 111.473 157.334 111.473C157.334 111.473 157.334 111.473 157.334 111.473C157.334 111.473 157.334 111.473 157.334 111.473C157.334 111.473 157.334 111.473 157.334 111.474C157.334 111.474 157.334 111.474 157.334 111.474C157.334 111.474 157.334 111.474 157.334 111.474C157.334 111.474 157.334 111.474 157.334 111.475C157.334 111.475 157.334 111.475 157.334 111.475C157.334 111.475 157.334 111.475 157.334 111.475C157.334 111.475 157.334 111.475 157.334 111.475C157.334 111.476 157.334 111.476 157.334 111.476C157.334 111.476 157.334 111.476 157.334 111.476C157.334 111.476 157.334 111.476 157.334 111.476C157.334 111.477 157.334 111.477 157.334 111.477C157.334 111.477 157.334 111.477 157.334 111.477C157.334 111.477 157.334 111.477 157.334 111.477C157.334 111.477 157.334 111.478 157.334 111.478C157.334 111.478 157.334 111.478 157.334 111.478C157.334 111.478 157.334 111.478 157.334 111.478C157.334 111.478 157.334 111.478 157.334 111.479C157.334 111.479 157.334 111.479 157.334 111.479C157.334 111.479 157.334 111.479 157.334 111.479C157.334 111.479 157.334 111.479 157.334 111.479C157.334 111.48 157.334 111.48 157.334 111.48C157.334 111.48 157.334 111.48 157.334 111.48C157.334 111.48 157.334 111.48 157.334 111.48C157.334 111.48 157.334 111.481 157.334 111.481C157.334 111.481 157.334 111.481 157.334 111.481C157.334 111.481 157.334 111.481 157.334 111.481C157.334 111.481 157.334 111.482 157.334 111.482C157.334 111.482 157.334 111.482 157.334 111.482C157.334 111.482 157.334 111.482 157.334 111.482C157.334 111.482 157.334 111.482 157.334 111.482C157.334 111.483 157.334 111.483 157.334 111.483C157.334 111.483 157.334 111.483 157.334 111.483C157.334 111.483 157.334 111.483 157.334 111.483C157.334 111.483 157.334 111.484 157.334 111.484C157.334 111.484 157.334 111.484 157.334 111.484C157.334 111.484 157.334 111.484 157.334 111.484C157.334 111.484 157.334 111.484 157.334 111.485C157.334 111.485 157.334 111.485 157.334 111.485C157.334 111.485 157.334 111.485 157.334 111.485C157.334 111.485 157.334 111.485 157.334 111.485C157.334 111.486 157.334 111.486 157.334 111.486C157.334 111.486 157.334 111.486 157.334 111.486C157.334 111.486 157.334 111.486 157.334 111.486C157.334 111.486 157.334 111.486 157.334 111.487C157.334 111.487 157.334 111.487 157.334 111.487C157.334 111.487 157.334 111.487 157.334 111.487C157.334 111.487 157.334 111.487 157.334 111.487C157.334 111.488 157.334 111.488 157.334 111.488C157.334 111.488 157.334 111.488 157.334 111.488C157.334 111.488 157.334 111.488 157.334 111.488C157.334 111.488 157.334 111.488 157.334 111.489C157.334 111.489 157.334 111.489 157.334 111.489C157.334 111.489 157.334 111.489 157.334 111.489C157.334 111.489 157.334 111.489 157.334 111.489C157.334 111.49 157.334 111.49 157.334 111.49C157.334 111.49 157.334 111.49 157.334 111.49C157.334 111.49 157.334 111.49 157.334 111.49C157.334 111.49 157.334 111.49 157.334 111.491C157.334 111.491 157.334 111.491 157.334 111.491C157.334 111.491 157.334 111.491 157.334 111.491C157.334 111.491 157.334 111.491 157.334 111.491C157.334 111.491 157.334 111.492 157.334 111.492C157.334 111.492 157.334 111.492 157.334 111.492C157.334 111.492 157.334 111.492 157.334 111.492C157.334 111.492 157.334 111.492 157.334 111.492C157.334 111.493 157.334 111.493 157.334 111.493C157.334 111.493 157.334 111.493 157.334 111.493C157.334 111.493 157.334 111.493 157.334 111.493C157.334 111.493 157.334 111.493 157.334 111.494C157.334 111.494 157.334 111.494 157.334 111.494C157.334 111.494 157.334 111.494 157.334 111.494C157.334 111.494 157.334 111.494 157.334 111.494C157.334 111.494 157.334 111.494 157.334 111.495C157.334 111.495 157.334 111.495 157.334 111.495C157.334 111.495 157.334 111.495 157.334 111.495C157.334 111.495 157.334 111.495 157.334 111.495C157.334 111.495 157.334 111.496 157.334 111.496C157.334 111.496 157.334 111.496 157.334 111.496C157.334 111.496 157.334 111.496 157.334 111.496C157.334 111.496 157.334 111.496 157.334 111.496C157.334 111.497 157.334 111.497 157.334 111.497C157.334 111.497 157.334 111.497 157.334 111.497C157.334 111.497 157.334 111.497 157.334 111.497C157.334 111.497 157.334 111.497 157.334 111.497C157.334 111.498 157.334 111.498 157.334 111.498C157.334 111.498 157.334 111.498 157.334 111.498C157.334 111.498 157.334 111.498 157.334 111.498C157.334 111.498 157.334 111.498 157.334 111.498C157.334 111.499 157.334 111.499 157.334 111.499C157.334 111.499 157.334 111.499 157.334 111.499C157.334 111.499 157.334 111.499 157.334 111.499C157.334 111.499 157.334 111.499 157.334 111.499C157.334 111.5 157.334 111.5 157.334 111.5C157.334 111.5 157.334 111.5 157.334 111.5H158.334ZM158.334 111.276L159.327 111.152C159.308 111.001 159.302 110.908 159.302 110.86H158.302H157.302C157.302 111.025 157.318 111.21 157.342 111.4L158.334 111.276ZM158.302 110.86H159.302C159.302 110.086 159.41 109.016 159.641 107.631L158.655 107.467L157.668 107.302C157.43 108.734 157.302 109.927 157.302 110.86H158.302ZM158.655 107.467L159.635 107.663C159.79 106.89 159.879 106.218 159.879 105.674H158.879H157.879C157.879 106.027 157.818 106.55 157.674 107.271L158.655 107.467ZM158.879 105.674H159.879C159.879 104.651 159.542 103.693 158.64 103.13L158.11 103.978L157.58 104.826C157.703 104.903 157.879 105.076 157.879 105.674H158.879ZM158.11 103.978L158.665 103.146C157.883 102.624 156.683 102.466 155.326 102.466V103.466V104.466C156.657 104.466 157.313 104.648 157.556 104.81L158.11 103.978ZM176.046 111.5V112.5H176.885L177.031 111.674L176.046 111.5ZM168.492 111.5L167.507 111.326L167.3 112.5H168.492V111.5ZM172.557 88.4534V87.4534H171.718L171.572 88.2797L172.557 88.4534ZM180.111 88.4534L181.096 88.6271L181.303 87.4534H180.111V88.4534ZM176.046 111.5V110.5H168.492V111.5V112.5H176.046V111.5ZM168.492 111.5L169.476 111.674L173.542 88.6271L172.557 88.4534L171.572 88.2797L167.507 111.326L168.492 111.5ZM172.557 88.4534V89.4534H180.111V88.4534V87.4534H172.557V88.4534ZM180.111 88.4534L179.126 88.2797L175.061 111.326L176.046 111.5L177.031 111.674L181.096 88.6271L180.111 88.4534Z" fill="black" mask="url(#path-1-outside-1_2571_2)"/>
<mask id="path-3-outside-2_2571_2" maskUnits="userSpaceOnUse" x="105" y="65.5" width="66" height="21" fill="black">
<rect fill="white" x="105" y="65.5" width="66" height="21"/>
<path d="M115.976 77.8583H114.072L113.488 81.2349H116.103C116.932 81.2349 117.592 81.1164 118.083 80.8795C118.574 80.6256 118.87 80.1855 118.971 79.5593C118.971 79.4916 118.98 79.4239 118.997 79.3562C119.014 79.2547 119.022 79.1954 119.022 79.1785C119.022 78.62 118.777 78.2645 118.286 78.1122C117.795 77.943 117.025 77.8583 115.976 77.8583ZM117.296 71.4861H115.189L114.656 74.5326H117.143C117.77 74.5326 118.294 74.3972 118.718 74.1264C119.141 73.8386 119.395 73.4409 119.479 72.9332C119.479 72.8824 119.488 72.8147 119.505 72.7301C119.521 72.6454 119.53 72.5947 119.53 72.5777C119.53 72.0869 119.344 71.7823 118.971 71.6638C118.599 71.5453 118.041 71.4861 117.296 71.4861ZM115.646 85.5H106.735L109.959 67.221H118.692C119.674 67.221 120.562 67.2802 121.358 67.3987C122.153 67.5171 122.847 67.7202 123.44 68.008C124.049 68.2788 124.514 68.6596 124.836 69.1504C125.174 69.6243 125.344 70.2082 125.344 70.9021C125.344 71.1899 125.318 71.4945 125.268 71.8161C125.115 72.6793 124.751 73.4578 124.176 74.1518C123.6 74.8288 122.932 75.3788 122.17 75.8019C122.949 76.0051 123.541 76.4028 123.947 76.9952C124.37 77.5706 124.582 78.2645 124.582 79.0769C124.582 79.3647 124.548 79.6693 124.48 79.9909C124.142 81.9373 123.211 83.3421 121.688 84.2052C120.182 85.0684 118.167 85.5 115.646 85.5ZM135.228 79.28L134.466 72.7301L131.445 79.28H135.228ZM128.525 85.5H122.661L132.435 67.221H138.528L141.854 85.5H135.888L135.608 83.0882H129.642L128.525 85.5ZM146.762 85.5H141.379L144.604 67.221H151.839L153.058 78.62L158.288 67.221H165.523L162.299 85.5H156.917L157.907 79.9147L158.491 77.0713L159.379 73.7709H159.329L153.921 85.5H149.757L148.513 73.7709H148.463L148.234 76.462L147.853 79.3054L146.762 85.5ZM168.451 85.5H163.069L163.983 80.2702H169.365L168.451 85.5Z"/>
</mask>
<path d="M114.072 77.8583V76.8583H113.23L113.086 77.6879L114.072 77.8583ZM113.488 81.2349L112.502 81.0645L112.3 82.2349H113.488V81.2349ZM118.083 80.8795L118.518 81.78L118.53 81.774L118.542 81.7677L118.083 80.8795ZM118.971 79.5593L119.959 79.7194L119.971 79.6399V79.5593H118.971ZM118.997 79.3562L119.967 79.5987L119.977 79.56L119.983 79.5206L118.997 79.3562ZM118.286 78.1122L117.96 79.0576L117.975 79.0627L117.99 79.0673L118.286 78.1122ZM115.189 71.4861V70.4861H114.348L114.204 71.3137L115.189 71.4861ZM114.656 74.5326L113.67 74.3602L113.465 75.5326H114.656V74.5326ZM118.718 74.1264L119.257 74.9686L119.268 74.9611L119.28 74.9533L118.718 74.1264ZM119.479 72.9332L120.466 73.0976L120.479 73.0159V72.9332H119.479ZM119.505 72.7301L120.485 72.9262L120.485 72.9262L119.505 72.7301ZM118.971 71.6638L118.668 72.6167L118.668 72.6167L118.971 71.6638ZM106.735 85.5L105.75 85.3263L105.543 86.5H106.735V85.5ZM109.959 67.221V66.221H109.12L108.974 67.0472L109.959 67.221ZM121.358 67.3987L121.505 66.4096L121.505 66.4096L121.358 67.3987ZM123.44 68.008L123.003 68.9075L123.018 68.9149L123.033 68.9218L123.44 68.008ZM124.836 69.1504L123.999 69.6984L124.01 69.7153L124.022 69.7316L124.836 69.1504ZM125.268 71.8161L126.252 71.9899L126.254 71.981L126.255 71.9721L125.268 71.8161ZM124.176 74.1518L124.938 74.7995L124.946 74.7901L124.176 74.1518ZM122.17 75.8019L121.685 74.9278L119.503 76.1397L121.918 76.7696L122.17 75.8019ZM123.947 76.9952L123.123 77.5607L123.132 77.5743L123.142 77.5876L123.947 76.9952ZM124.48 79.9909L123.502 79.7849L123.498 79.8022L123.495 79.8196L124.48 79.9909ZM121.688 84.2052L121.195 83.3352L121.191 83.3376L121.688 84.2052ZM115.976 77.8583V76.8583H114.072V77.8583V78.8583H115.976V77.8583ZM114.072 77.8583L113.086 77.6879L112.502 81.0645L113.488 81.2349L114.473 81.4053L115.057 78.0287L114.072 77.8583ZM113.488 81.2349V82.2349H116.103V81.2349V80.2349H113.488V81.2349ZM116.103 81.2349V82.2349C117.011 82.2349 117.839 82.1076 118.518 81.78L118.083 80.8795L117.648 79.9789C117.345 80.1252 116.853 80.2349 116.103 80.2349V81.2349ZM118.083 80.8795L118.542 81.7677C119.359 81.3454 119.815 80.6053 119.959 79.7194L118.971 79.5593L117.984 79.3992C117.925 79.7657 117.789 79.9058 117.623 79.9912L118.083 80.8795ZM118.971 79.5593H119.971C119.971 79.5759 119.969 79.5896 119.967 79.5987L118.997 79.3562L118.027 79.1137C117.99 79.2582 117.971 79.4074 117.971 79.5593H118.971ZM118.997 79.3562L119.983 79.5206C119.992 79.4668 120 79.4179 120.006 79.377C120.007 79.3678 120.022 79.2725 120.022 79.1785H119.022H118.022C118.022 79.1688 118.022 79.1602 118.023 79.1532C118.023 79.1461 118.023 79.1399 118.023 79.1346C118.024 79.1243 118.024 79.1159 118.025 79.1101C118.025 79.1042 118.026 79.0994 118.026 79.0962C118.026 79.0928 118.027 79.0903 118.027 79.0887C118.027 79.0857 118.027 79.0846 118.027 79.086C118.027 79.0873 118.026 79.09 118.026 79.0942C118.025 79.1028 118.023 79.1152 118.02 79.132C118.017 79.1487 118.014 79.1685 118.01 79.1918L118.997 79.3562ZM119.022 79.1785H120.022C120.022 78.7554 119.929 78.3124 119.661 77.9248C119.388 77.5296 119 77.2866 118.582 77.1572L118.286 78.1122L117.99 79.0673C118.03 79.0798 118.043 79.0895 118.04 79.0878C118.036 79.0849 118.025 79.0757 118.015 79.0612C118.006 79.0475 118.007 79.0426 118.01 79.057C118.015 79.0731 118.022 79.1111 118.022 79.1785H119.022ZM118.286 78.1122L118.612 77.1668C117.956 76.9407 117.047 76.8583 115.976 76.8583V77.8583V78.8583C117.003 78.8583 117.634 78.9452 117.96 79.0576L118.286 78.1122ZM117.296 71.4861V70.4861H115.189V71.4861V72.4861H117.296V71.4861ZM115.189 71.4861L114.204 71.3137L113.67 74.3602L114.656 74.5326L115.641 74.705L116.174 71.6584L115.189 71.4861ZM114.656 74.5326V75.5326H117.143V74.5326V73.5326H114.656V74.5326ZM117.143 74.5326V75.5326C117.914 75.5326 118.637 75.3652 119.257 74.9686L118.718 74.1264L118.178 73.2841C117.952 73.4292 117.626 73.5326 117.143 73.5326V74.5326ZM118.718 74.1264L119.28 74.9533C119.93 74.5109 120.336 73.873 120.466 73.0976L119.479 72.9332L118.493 72.7688C118.453 73.0088 118.351 73.1664 118.155 73.2994L118.718 74.1264ZM119.479 72.9332H120.479C120.479 72.9478 120.479 72.9581 120.478 72.9632C120.478 72.9683 120.478 72.9702 120.478 72.9683C120.478 72.9665 120.479 72.9621 120.48 72.9548C120.481 72.9475 120.483 72.938 120.485 72.9262L119.505 72.7301L118.524 72.5339C118.502 72.6451 118.479 72.7866 118.479 72.9332H119.479ZM119.505 72.7301L120.485 72.9262C120.494 72.8793 120.503 72.8336 120.51 72.7929C120.512 72.7822 120.53 72.683 120.53 72.5777H119.53H118.53C118.53 72.5586 118.531 72.5427 118.531 72.5314C118.532 72.5197 118.532 72.5099 118.533 72.5026C118.534 72.4884 118.535 72.4779 118.536 72.4727C118.537 72.4628 118.538 72.4588 118.537 72.4641C118.536 72.4684 118.535 72.4763 118.533 72.4886C118.53 72.5008 118.528 72.5158 118.524 72.5339L119.505 72.7301ZM119.53 72.5777H120.53C120.53 72.2146 120.462 71.8173 120.244 71.4597C120.013 71.0821 119.667 70.8356 119.275 70.7109L118.971 71.6638L118.668 72.6167C118.665 72.6158 118.643 72.6078 118.612 72.5846C118.58 72.5606 118.554 72.531 118.537 72.5026C118.505 72.4496 118.53 72.45 118.53 72.5777H119.53ZM118.971 71.6638L119.275 70.7109C118.752 70.5445 118.068 70.4861 117.296 70.4861V71.4861V72.4861C118.013 72.4861 118.446 72.5461 118.668 72.6167L118.971 71.6638ZM115.646 85.5V84.5H106.735V85.5V86.5H115.646V85.5ZM106.735 85.5L107.719 85.6737L110.944 67.3947L109.959 67.221L108.974 67.0472L105.75 85.3263L106.735 85.5ZM109.959 67.221V68.221H118.692V67.221V66.221H109.959V67.221ZM118.692 67.221V68.221C119.635 68.221 120.473 68.2779 121.211 68.3878L121.358 67.3987L121.505 66.4096C120.652 66.2825 119.713 66.221 118.692 66.221V67.221ZM121.358 67.3987L121.211 68.3878C121.927 68.4944 122.519 68.6727 123.003 68.9075L123.44 68.008L123.877 67.1085C123.175 66.7678 122.38 66.5398 121.505 66.4096L121.358 67.3987ZM123.44 68.008L123.033 68.9218C123.492 69.1255 123.797 69.3895 123.999 69.6984L124.836 69.1504L125.672 68.6024C125.232 67.9297 124.606 67.4321 123.846 67.0942L123.44 68.008ZM124.836 69.1504L124.022 69.7316C124.218 70.0054 124.344 70.3757 124.344 70.9021H125.344H126.344C126.344 70.0407 126.131 69.2432 125.65 68.5692L124.836 69.1504ZM125.344 70.9021H124.344C124.344 71.1314 124.323 71.3836 124.28 71.6601L125.268 71.8161L126.255 71.9721C126.313 71.6055 126.344 71.2484 126.344 70.9021H125.344ZM125.268 71.8161L124.283 71.6423C124.161 72.3296 123.874 72.9491 123.406 73.5134L124.176 74.1518L124.946 74.7901C125.629 73.9666 126.069 73.029 126.252 71.9899L125.268 71.8161ZM124.176 74.1518L123.414 73.5041C122.915 74.0915 122.339 74.5641 121.685 74.9278L122.17 75.8019L122.656 76.6761C123.525 76.1935 124.286 75.566 124.938 74.7994L124.176 74.1518ZM122.17 75.8019L121.918 76.7696C122.493 76.9197 122.869 77.191 123.123 77.5607L123.947 76.9952L124.772 76.4296C124.213 75.6146 123.404 75.0904 122.423 74.8343L122.17 75.8019ZM123.947 76.9952L123.142 77.5876C123.422 77.9682 123.582 78.4471 123.582 79.0769H124.582H125.582C125.582 78.082 125.319 77.173 124.753 76.4028L123.947 76.9952ZM124.582 79.0769H123.582C123.582 79.2865 123.557 79.5217 123.502 79.7849L124.48 79.9909L125.459 80.1969C125.539 79.817 125.582 79.4429 125.582 79.0769H124.582ZM124.48 79.9909L123.495 79.8196C123.201 81.5138 122.422 82.6397 121.195 83.3352L121.688 84.2052L122.181 85.0753C124 84.0445 125.083 82.3608 125.466 80.1622L124.48 79.9909ZM121.688 84.2052L121.191 83.3376C119.889 84.0835 118.067 84.5 115.646 84.5V85.5V86.5C118.268 86.5 120.474 86.0533 122.185 85.0729L121.688 84.2052ZM135.228 79.28V80.28H136.351L136.221 79.1645L135.228 79.28ZM134.466 72.7301L135.459 72.6146L135.048 69.08L133.558 72.3112L134.466 72.7301ZM131.445 79.28L130.537 78.8612L129.882 80.28H131.445V79.28ZM128.525 85.5V86.5H129.164L129.433 85.9203L128.525 85.5ZM122.661 85.5L121.779 85.0285L120.992 86.5H122.661V85.5ZM132.435 67.221V66.221H131.836L131.553 66.7494L132.435 67.221ZM138.528 67.221L139.512 67.0419L139.362 66.221H138.528V67.221ZM141.854 85.5V86.5H143.052L142.838 85.321L141.854 85.5ZM135.888 85.5L134.894 85.615L134.997 86.5H135.888V85.5ZM135.608 83.0882L136.602 82.9732L136.499 82.0882H135.608V83.0882ZM129.642 83.0882V82.0882H129.003L128.735 82.6679L129.642 83.0882ZM135.228 79.28L136.221 79.1645L135.459 72.6146L134.466 72.7301L133.473 72.8456L134.234 79.3955L135.228 79.28ZM134.466 72.7301L133.558 72.3112L130.537 78.8612L131.445 79.28L132.353 79.6989L135.374 73.1489L134.466 72.7301ZM131.445 79.28V80.28H135.228V79.28V78.28H131.445V79.28ZM128.525 85.5V84.5H122.661V85.5V86.5H128.525V85.5ZM122.661 85.5L123.543 85.9715L133.317 67.6925L132.435 67.221L131.553 66.7494L121.779 85.0285L122.661 85.5ZM132.435 67.221V68.221H138.528V67.221V66.221H132.435V67.221ZM138.528 67.221L137.544 67.4L140.87 85.679L141.854 85.5L142.838 85.321L139.512 67.0419L138.528 67.221ZM141.854 85.5V84.5H135.888V85.5V86.5H141.854V85.5ZM135.888 85.5L136.881 85.385L136.602 82.9732L135.608 83.0882L134.615 83.2032L134.894 85.615L135.888 85.5ZM135.608 83.0882V82.0882H129.642V83.0882V84.0882H135.608V83.0882ZM129.642 83.0882L128.735 82.6679L127.618 85.0797L128.525 85.5L129.433 85.9203L130.55 83.5084L129.642 83.0882ZM146.762 85.5V86.5H147.601L147.746 85.6736L146.762 85.5ZM141.379 85.5L140.395 85.3263L140.188 86.5H141.379V85.5ZM144.604 67.221V66.221H143.765L143.619 67.0472L144.604 67.221ZM151.839 67.221L152.834 67.1147L152.738 66.221H151.839V67.221ZM153.058 78.62L152.063 78.7263L152.45 82.3426L153.967 79.037L153.058 78.62ZM158.288 67.221V66.221H157.646L157.379 66.804L158.288 67.221ZM165.523 67.221L166.508 67.3947L166.715 66.221H165.523V67.221ZM162.299 85.5V86.5H163.138L163.284 85.6737L162.299 85.5ZM156.917 85.5L155.932 85.3254L155.724 86.5H156.917V85.5ZM157.907 79.9147L156.927 79.7136L156.925 79.7268L156.922 79.7402L157.907 79.9147ZM158.491 77.0713L157.525 76.8114L157.517 76.8406L157.511 76.8702L158.491 77.0713ZM159.379 73.7709L160.345 74.0309L160.684 72.7709H159.379V73.7709ZM159.329 73.7709V72.7709H158.688L158.42 73.3523L159.329 73.7709ZM153.921 85.5V86.5H154.561L154.829 85.9187L153.921 85.5ZM149.757 85.5L148.763 85.6055L148.858 86.5H149.757V85.5ZM148.513 73.7709L149.508 73.6655L149.413 72.7709H148.513V73.7709ZM148.463 73.7709V72.7709H147.544L147.466 73.6863L148.463 73.7709ZM148.234 76.462L149.225 76.5948L149.229 76.5708L149.231 76.5466L148.234 76.462ZM147.853 79.3054L148.838 79.479L148.842 79.4586L148.844 79.4382L147.853 79.3054ZM146.762 85.5V84.5H141.379V85.5V86.5H146.762V85.5ZM141.379 85.5L142.364 85.6737L145.589 67.3947L144.604 67.221L143.619 67.0472L140.395 85.3263L141.379 85.5ZM144.604 67.221V68.221H151.839V67.221V66.221H144.604V67.221ZM151.839 67.221L150.845 67.3273L152.063 78.7263L153.058 78.62L154.052 78.5137L152.834 67.1147L151.839 67.221ZM153.058 78.62L153.967 79.037L159.197 67.638L158.288 67.221L157.379 66.804L152.149 78.203L153.058 78.62ZM158.288 67.221V68.221H165.523V67.221V66.221H158.288V67.221ZM165.523 67.221L164.538 67.0472L161.314 85.3263L162.299 85.5L163.284 85.6737L166.508 67.3947L165.523 67.221ZM162.299 85.5V84.5H156.917V85.5V86.5H162.299V85.5ZM156.917 85.5L157.901 85.6746L158.891 80.0893L157.907 79.9147L156.922 79.7402L155.932 85.3254L156.917 85.5ZM157.907 79.9147L158.886 80.1159L159.47 77.2725L158.491 77.0713L157.511 76.8702L156.927 79.7136L157.907 79.9147ZM158.491 77.0713L159.456 77.3313L160.345 74.0309L159.379 73.7709L158.414 73.511L157.525 76.8114L158.491 77.0713ZM159.379 73.7709V72.7709H159.329V73.7709V74.7709H159.379V73.7709ZM159.329 73.7709L158.42 73.3523L153.013 85.0813L153.921 85.5L154.829 85.9187L160.237 74.1896L159.329 73.7709ZM153.921 85.5V84.5H149.757V85.5V86.5H153.921V85.5ZM149.757 85.5L150.752 85.3945L149.508 73.6655L148.513 73.7709L147.519 73.8764L148.763 85.6055L149.757 85.5ZM148.513 73.7709V72.7709H148.463V73.7709V74.7709H148.513V73.7709ZM148.463 73.7709L147.466 73.6863L147.238 76.3774L148.234 76.462L149.231 76.5466L149.459 73.8555L148.463 73.7709ZM148.234 76.462L147.243 76.3293L146.862 79.1727L147.853 79.3054L148.844 79.4382L149.225 76.5948L148.234 76.462ZM147.853 79.3054L146.868 79.1319L145.777 85.3264L146.762 85.5L147.746 85.6736L148.838 79.479L147.853 79.3054ZM168.451 85.5V86.5H169.292L169.436 85.6721L168.451 85.5ZM163.069 85.5L162.084 85.3279L161.879 86.5H163.069V85.5ZM163.983 80.2702V79.2702H163.143L162.998 80.098L163.983 80.2702ZM169.365 80.2702L170.35 80.4423L170.555 79.2702H169.365V80.2702ZM168.451 85.5V84.5H163.069V85.5V86.5H168.451V85.5ZM163.069 85.5L164.054 85.6721L164.968 80.4423L163.983 80.2702L162.998 80.098L162.084 85.3279L163.069 85.5ZM163.983 80.2702V81.2702H169.365V80.2702V79.2702H163.983V80.2702ZM169.365 80.2702L168.38 80.098L167.466 85.3279L168.451 85.5L169.436 85.6721L170.35 80.4423L169.365 80.2702Z" fill="black" mask="url(#path-3-outside-2_2571_2)"/>
</svg>
