<svg width="30" height="27" viewBox="0 0 30 27" fill="none" xmlns="http://www.w3.org/2000/svg">
<path d="M14.6069 3.99524L15 4.49556L15.3931 3.99524C16.8196 2.17994 19.0955 1 21.6667 1C23.8727 1 25.8294 1.65302 27.2276 2.89232C28.6173 4.12413 29.5 5.97406 29.5 8.46773C29.5 10.6398 28.6156 12.8237 27.2394 14.9013C25.8651 16.976 24.0235 18.9097 22.1666 20.5709C20.3117 22.2304 18.4545 23.6065 17.0599 24.5682C16.3631 25.0488 15.7829 25.4251 15.3777 25.6807C15.2263 25.7763 15.0994 25.8549 15 25.9159C14.9006 25.8549 14.7737 25.7763 14.6223 25.6807C14.2171 25.4251 13.6369 25.0488 12.9401 24.5682C11.5455 23.6065 9.68829 22.2304 7.83337 20.5709C5.97648 18.9097 4.13489 16.976 2.7606 14.9013C1.3844 12.8237 0.5 10.6398 0.5 8.46773C0.5 5.97406 1.38271 4.12413 2.77242 2.89232C4.17058 1.65302 6.12726 1 8.3333 1C10.9045 1 13.1804 2.17994 14.6069 3.99524Z" stroke="#1A1A1B"/>
</svg>
